<svg width="736" height="570" viewBox="0 0 736 570" fill="none" xmlns="http://www.w3.org/2000/svg">
<path d="M96.0248 530H82.4463" stroke="black" stroke-width="1.1133" stroke-miterlimit="10"/>
<path d="M646.029 530H87.5015" stroke="black" stroke-width="1.1133" stroke-miterlimit="10"/>
<path d="M280.963 553.054C256.138 553.054 236.012 547.517 236.012 540.688C236.012 533.859 256.138 528.322 280.963 528.322C305.789 528.322 325.915 533.859 325.915 540.688C325.915 547.517 305.789 553.054 280.963 553.054Z" fill="black"/>
<path d="M513.293 568.777C560.078 568.777 566.986 562.017 567.666 556.559C567.821 555.422 567.709 554.265 567.339 553.179C566.969 552.094 566.352 551.109 565.536 550.302C552.934 537.079 480.308 542.67 379.815 550.406C365.792 551.486 351.297 552.595 336.431 553.704C234.888 561.248 194.005 560.272 185.559 550.066C183.843 547.98 183.488 545.377 184.435 541.856C188.458 527.139 242.24 527.065 262.607 528.219C263.073 528.243 263.53 528.083 263.879 527.773C264.228 527.463 264.441 527.028 264.471 526.562C264.485 526.332 264.453 526.101 264.377 525.883C264.301 525.664 264.183 525.464 264.029 525.292C263.875 525.12 263.688 524.98 263.48 524.881C263.271 524.781 263.045 524.724 262.815 524.713C255.019 524.255 186.535 520.808 181.047 540.984C179.79 545.628 180.367 549.341 182.852 552.358C192.333 563.866 231.146 565.094 336.683 557.254C351.563 556.145 366.059 555.036 380.081 553.956C475.87 546.56 551.543 540.747 562.992 552.772C563.445 553.202 563.788 553.734 563.994 554.323C564.2 554.912 564.262 555.542 564.175 556.16C563.746 559.65 555.3 567.46 487.26 564.739C449.201 563.26 410.966 559.074 410.581 559.029C410.136 559.011 409.7 559.163 409.362 559.454C409.024 559.744 408.809 560.152 408.76 560.595C408.711 561.038 408.833 561.483 409.099 561.841C409.366 562.198 409.758 562.441 410.196 562.52C410.581 562.52 448.935 566.721 487.112 568.244C496.933 568.599 505.631 568.777 513.293 568.777Z" fill="white" stroke="black" stroke-width="1.1133" stroke-miterlimit="10"/>
<path d="M297.678 551.546C268.425 551.546 244.71 527.831 244.71 498.578C244.71 469.324 268.425 445.609 297.678 445.609C326.932 445.609 350.646 469.324 350.646 498.578C350.646 527.831 326.932 551.546 297.678 551.546Z" fill="white"/>
<path d="M297.678 551.545C288.039 551.551 278.581 548.926 270.323 543.953C262.066 538.98 255.323 531.847 250.821 523.324C246.319 514.801 244.228 505.21 244.775 495.587C245.322 485.963 248.486 476.671 253.925 468.713C254.502 491.788 267.237 525.852 333.473 537.567C323.723 546.56 310.943 551.551 297.678 551.545Z" fill="#FDDAD3"/>
<path opacity="0.3" d="M297.678 551.545C288.039 551.551 278.581 548.926 270.323 543.953C262.066 538.98 255.323 531.847 250.821 523.324C246.319 514.801 244.228 505.21 244.775 495.587C245.322 485.963 248.486 476.671 253.925 468.713C254.502 491.788 267.237 525.852 333.473 537.567C323.723 546.56 310.943 551.551 297.678 551.545Z" fill="white"/>
<path d="M271.615 519.345C281.061 510.155 292.531 503.311 305.103 499.361C292.531 503.311 281.061 510.155 271.615 519.345H268.805C262.571 513.164 257.202 506.169 252.845 498.548C277.65 472.338 301.775 475.015 301.775 475.015C301.775 475.015 277.576 472.337 252.771 498.578C251.41 496.137 250.271 493.844 249.34 491.729C259.664 477.263 277.443 467.397 286.984 465.918L289.202 465.386C292.622 464.764 296.121 464.714 299.556 465.238C296.121 464.714 292.622 464.764 289.202 465.386L282.887 447.636C285.871 446.783 288.925 446.194 292.013 445.876C296.11 452.487 306.656 473.61 306.656 515.514C306.656 473.61 296.11 452.487 292.013 445.876C293.788 445.713 295.563 445.609 297.382 445.609C299.384 445.615 301.384 445.734 303.373 445.964C309.615 455.401 321.551 477.692 322.35 511.15C309.97 515.662 293.403 519.034 271.615 519.345ZM259.649 508.562C280.742 488.002 304.023 486.922 304.023 486.922C304.023 486.922 280.742 488.002 259.649 508.562V508.562Z" stroke="black" stroke-width="1.1133" stroke-linecap="round" stroke-linejoin="round"/>
<path d="M322.41 511.239C321.611 477.78 309.674 455.49 303.432 446.053C308.316 446.601 313.1 447.825 317.647 449.691C328.857 466.137 335.189 485.417 335.914 505.307C331.571 507.626 327.056 509.609 322.41 511.239Z" stroke="black" stroke-width="1.1133" stroke-linecap="round" stroke-linejoin="round"/>
<path d="M317.646 449.646C326.793 453.418 334.704 459.671 340.485 467.7C346.267 475.729 349.689 485.215 350.365 495.086C346.009 499.09 341.152 502.511 335.913 505.262C335.189 485.372 328.856 466.092 317.646 449.646V449.646Z" stroke="black" stroke-width="1.1133" stroke-linecap="round" stroke-linejoin="round"/>
<path d="M249.414 491.729C248.261 489.182 247.273 486.564 246.455 483.89C248.667 476.346 252.521 469.385 257.741 463.507L261.838 477.175L257.815 463.507C261.082 459.842 264.84 456.647 268.983 454.011L273.494 470.888L268.953 454.085C273.284 451.315 277.999 449.197 282.946 447.799L289.262 465.549C279.588 466.939 264.634 472.634 249.414 491.729Z" stroke="black" stroke-width="1.1133" stroke-linecap="round" stroke-linejoin="round"/>
<path d="M244.43 501.078C244.43 500.309 244.43 499.599 244.43 498.771C244.43 493.735 245.147 488.724 246.56 483.891C247.377 486.564 248.365 489.183 249.518 491.73C250.153 493.293 250.904 494.806 251.766 496.256C251.678 496.345 253.038 498.49 252.95 498.579C252.861 498.667 254.429 501.241 254.429 501.152C257.949 507.409 268.569 519.39 268.392 519.39C268.569 519.39 274.131 524.434 277.163 526.978C282.709 531.572 288.588 535.75 294.75 539.477H294.366H294.75C300.811 543.14 307.078 546.449 313.521 549.387C308.347 551.015 302.955 551.843 297.531 551.842C296.629 551.842 295.741 551.842 294.868 551.842C284.026 545.941 266.794 532.48 244.43 501.078Z" stroke="black" stroke-width="1.1133" stroke-linecap="round" stroke-linejoin="round"/>
<path d="M244.429 501.078C266.794 532.48 284.026 545.941 294.779 551.709C281.592 551.045 269.127 545.49 259.816 536.127C250.506 526.765 245.02 514.269 244.429 501.078V501.078Z" stroke="black" stroke-width="1.1133" stroke-linecap="round" stroke-linejoin="round"/>
<path d="M338.917 531.844C332.354 540.094 323.481 546.201 313.431 549.386C306.989 546.448 300.721 543.139 294.661 539.476C307.293 541.813 327.054 536.015 338.917 531.844Z" stroke="black" stroke-width="1.1133" stroke-linecap="round" stroke-linejoin="round"/>
<path d="M294.661 539.475C288.498 535.748 282.62 531.57 277.074 526.976C315.221 530.881 338.754 519.063 348.753 512.348C346.866 519.459 343.516 526.099 338.917 531.843C327.054 536.014 307.293 541.812 294.661 539.475Z" stroke="black" stroke-width="1.1133" stroke-linecap="round" stroke-linejoin="round"/>
<path d="M277.074 526.977C274.042 524.432 271.306 521.888 268.806 519.374H271.616C271.409 519.566 271.202 519.758 271.01 519.965C271.202 519.758 271.409 519.566 271.616 519.374C293.404 519.063 309.97 515.691 322.41 511.268C340.589 504.967 347.141 498.192 350.366 495.16C350.454 496.373 350.514 497.571 350.514 498.799C350.512 503.382 349.92 507.946 348.753 512.377C338.754 519.063 315.221 530.881 277.074 526.977Z" stroke="black" stroke-width="1.1133" stroke-linecap="round" stroke-linejoin="round"/>
<path d="M297.678 551.546C268.425 551.546 244.71 527.831 244.71 498.578C244.71 469.324 268.425 445.609 297.678 445.609C326.932 445.609 350.646 469.324 350.646 498.578C350.646 527.831 326.932 551.546 297.678 551.546Z" stroke="black" stroke-width="1.1133" stroke-linecap="round" stroke-linejoin="round"/>
<path d="M78.0234 428.055C78.0234 428.055 74.3995 416.296 63.8384 412.066C56.4427 409.107 48.0559 409.906 40.4383 411.223C26.2681 413.693 13.9025 419.328 0.501465 424.135C0.501465 424.135 6.24051 422.02 29.7737 433.498C38.4415 437.714 48.3517 440.998 58.262 440.776C66.205 440.598 78.4228 438.32 78.0234 428.055Z" fill="#FFC2B6"/>
<path d="M79.2953 393.487C79.2953 393.487 79.2953 381.166 70.4204 374.081C64.2376 369.141 55.9248 367.44 48.2333 366.508C33.9447 364.777 20.4845 366.597 6.22559 367.321C6.22559 367.321 12.3344 366.966 31.5485 384.746C38.6336 391.283 47.1831 397.289 56.694 399.936C64.3559 402.066 76.692 403.427 79.2953 393.487Z" fill="#FFC2B6"/>
<path d="M103.568 439.207C103.568 439.207 93.9685 431.501 93.939 420.126C93.939 412.213 97.7404 404.654 101.778 398.072C109.293 385.795 119.084 376.388 128.521 365.664C128.521 365.664 124.439 370.22 126.421 396.327C127.161 405.941 126.539 416.369 122.679 425.495C119.647 432.832 113.035 443.349 103.568 439.207Z" fill="#FFC2B6"/>
<path d="M137.588 458.11C137.588 458.11 136.228 445.878 144.245 437.802C149.806 432.196 157.867 429.533 165.367 427.729C179.359 424.356 192.938 424.608 207.182 423.676C207.182 423.676 201.088 424.016 184.048 443.896C177.777 451.291 169.982 458.169 160.796 461.912C153.474 464.914 141.375 467.68 137.588 458.11Z" fill="#FFC2B6"/>
<path d="M135.414 414.492C135.414 414.492 123.211 412.82 117.354 403.073C113.272 396.298 112.665 387.837 112.739 380.116C112.887 365.739 116.466 352.619 119.055 338.582C119.055 338.582 117.886 344.587 133.003 365.961C138.565 373.845 143.357 383.104 144.836 392.926C145.887 400.81 145.606 413.22 135.414 414.492Z" fill="#FFC2B6"/>
<path d="M170.529 392.585C170.529 392.585 179.3 401.223 190.601 399.98C198.455 399.078 205.525 394.389 211.59 389.626C222.891 380.751 231.1 369.895 240.64 359.289C240.64 359.289 236.602 363.86 210.436 364.939C200.807 365.339 190.527 367.158 181.903 372.069C174.981 375.944 165.322 383.739 170.529 392.585Z" fill="#FFC2B6"/>
<path d="M160.367 384.05C160.367 384.05 172.614 385.278 180.601 377.187C186.163 371.551 188.737 363.475 190.467 355.947C193.692 341.939 193.307 328.346 194.076 314.102C194.076 314.102 193.81 320.196 174.093 337.442C166.845 343.788 159.967 351.657 156.343 360.872C153.4 368.283 150.752 380.412 160.367 384.05Z" fill="#FFC2B6"/>
<path d="M116.629 503.284L95.477 451.233L71.0859 391.047" stroke="black" stroke-width="1.1133" stroke-linecap="round" stroke-linejoin="round"/>
<path d="M121.51 494.334L142.647 421.96L165.426 377.23" stroke="black" stroke-width="1.1133" stroke-linecap="round" stroke-linejoin="round"/>
<path d="M129.63 465.877L150.782 453.674" stroke="black" stroke-width="1.1133" stroke-linecap="round" stroke-linejoin="round"/>
<path d="M142.647 421.961L132.071 398.369" stroke="black" stroke-width="1.1133" stroke-linecap="round" stroke-linejoin="round"/>
<path d="M155.885 398.486L181.682 386.979" stroke="black" stroke-width="1.1133" stroke-linecap="round" stroke-linejoin="round"/>
<path d="M99.5449 460.995L108.494 425.215" stroke="black" stroke-width="1.1133" stroke-linecap="round" stroke-linejoin="round"/>
<path d="M87.6822 433.793L67.0186 422.773" stroke="black" stroke-width="1.1133" stroke-linecap="round" stroke-linejoin="round"/>
<path d="M127.471 529.301H109.839C106.957 529.3 104.165 528.294 101.946 526.455C99.7264 524.616 98.2179 522.06 97.6807 519.228L91.4092 486.199H145.901L139.644 519.228C139.104 522.061 137.592 524.617 135.37 526.456C133.148 528.295 130.355 529.301 127.471 529.301Z" fill="black" stroke="black" stroke-width="1.1133" stroke-linecap="round" stroke-linejoin="round"/>
<path d="M450.031 394.427C448.253 394.427 446.579 394.108 445.006 393.47C443.445 392.821 442.107 391.944 440.99 390.838C439.874 389.733 438.991 388.412 438.341 386.874C437.692 385.324 437.367 383.672 437.367 381.917C437.367 379.582 437.914 377.463 439.008 375.56C440.113 373.646 441.634 372.148 443.571 371.065C445.508 369.972 447.661 369.425 450.031 369.425C452.412 369.425 454.571 369.972 456.508 371.065C458.456 372.148 459.983 373.646 461.088 375.56C462.193 377.463 462.746 379.582 462.746 381.917C462.746 383.672 462.421 385.324 461.771 386.874C461.122 388.412 460.233 389.733 459.105 390.838C457.989 391.944 456.645 392.821 455.072 393.47C453.5 394.108 451.819 394.427 450.031 394.427ZM450.031 390.394C452.435 390.394 454.44 389.585 456.046 387.967C457.664 386.349 458.473 384.333 458.473 381.917C458.473 379.502 457.664 377.491 456.046 375.885C454.44 374.267 452.435 373.458 450.031 373.458C447.638 373.458 445.639 374.267 444.032 375.885C442.437 377.491 441.64 379.502 441.64 381.917C441.64 384.333 442.443 386.349 444.049 387.967C445.656 389.585 447.65 390.394 450.031 390.394ZM476.349 375.731C478.468 375.731 480.172 376.375 481.459 377.662C482.758 378.95 483.407 380.653 483.407 382.772V394H479.494V384.054C479.494 382.687 479.089 381.587 478.28 380.755C477.471 379.924 476.395 379.508 475.05 379.508C473.638 379.508 472.498 379.929 471.632 380.772C470.766 381.616 470.333 382.732 470.333 384.122V394H466.403V368.792H470.333V378.568C471.792 376.677 473.797 375.731 476.349 375.731ZM485.851 399.076L488.295 389.659H492.909L489.235 399.076H485.851ZM521.449 369.852H525.619V394H521.381L509.298 376.927V394H505.146V369.852H509.367L521.449 386.925V369.852ZM539.035 394.427C536.312 394.427 534.039 393.533 532.216 391.744C530.393 389.955 529.481 387.734 529.481 385.079C529.481 382.424 530.393 380.203 532.216 378.414C534.039 376.625 536.312 375.731 539.035 375.731C540.812 375.731 542.43 376.141 543.888 376.961C545.358 377.77 546.509 378.893 547.34 380.328C548.172 381.752 548.588 383.336 548.588 385.079C548.588 386.822 548.172 388.412 547.34 389.847C546.509 391.271 545.358 392.394 543.888 393.214C542.43 394.023 540.812 394.427 539.035 394.427ZM535.087 389.044C536.146 390.104 537.462 390.633 539.035 390.633C540.607 390.633 541.911 390.104 542.948 389.044C543.996 387.973 544.521 386.651 544.521 385.079C544.521 383.495 543.996 382.174 542.948 381.114C541.911 380.043 540.607 379.508 539.035 379.508C537.462 379.508 536.146 380.043 535.087 381.114C534.027 382.185 533.498 383.507 533.498 385.079C533.498 386.651 534.027 387.973 535.087 389.044ZM552.621 386.686L552.382 375.799V369.852H556.535V375.799L556.295 386.686H552.621ZM554.433 394.273C553.658 394.273 553.014 394.017 552.501 393.504C552 392.992 551.75 392.354 551.75 391.59C551.75 390.816 552.006 390.172 552.519 389.659C553.031 389.146 553.669 388.89 554.433 388.89C555.219 388.89 555.868 389.146 556.381 389.659C556.905 390.172 557.167 390.816 557.167 391.59C557.167 392.365 556.905 393.009 556.381 393.521C555.868 394.023 555.219 394.273 554.433 394.273ZM587.057 369.852V373.766H579.777V394H575.607V373.766H568.292V369.852H587.057ZM600.045 375.731C602.165 375.731 603.868 376.375 605.155 377.662C606.454 378.95 607.104 380.653 607.104 382.772V394H603.19V384.054C603.19 382.687 602.785 381.587 601.977 380.755C601.168 379.924 600.091 379.508 598.747 379.508C597.334 379.508 596.194 379.929 595.329 380.772C594.463 381.616 594.03 382.732 594.03 384.122V394H590.099V368.792H594.03V378.568C595.488 376.677 597.493 375.731 600.045 375.731ZM613.427 373.133C612.72 373.133 612.128 372.894 611.649 372.416C611.171 371.937 610.932 371.35 610.932 370.655C610.932 369.938 611.171 369.345 611.649 368.878C612.128 368.411 612.72 368.177 613.427 368.177C614.145 368.177 614.743 368.411 615.221 368.878C615.7 369.345 615.939 369.938 615.939 370.655C615.939 371.362 615.7 371.954 615.221 372.433C614.743 372.9 614.145 373.133 613.427 373.133ZM611.461 394V376.158H615.392V394H611.461ZM626.09 394.427C623.219 394.427 620.747 393.516 618.673 391.693L620.707 388.924C622.177 390.326 623.948 391.026 626.022 391.026C627.059 391.026 627.908 390.855 628.568 390.514C629.229 390.16 629.56 389.676 629.56 389.061C629.56 388.788 629.486 388.543 629.337 388.326C629.201 388.11 629.03 387.927 628.825 387.779C628.631 387.631 628.34 387.489 627.953 387.352C627.566 387.215 627.224 387.107 626.928 387.027C626.643 386.948 626.238 386.845 625.714 386.72C625.19 386.594 624.763 386.492 624.433 386.412C624.102 386.321 623.686 386.19 623.185 386.019C622.684 385.848 622.268 385.677 621.938 385.506C621.618 385.335 621.271 385.108 620.895 384.823C620.519 384.538 620.223 384.23 620.006 383.9C619.79 383.569 619.608 383.176 619.459 382.721C619.311 382.265 619.237 381.764 619.237 381.217C619.237 380.032 619.568 379.018 620.229 378.175C620.889 377.332 621.744 376.716 622.792 376.329C623.84 375.93 625.025 375.731 626.347 375.731C628.956 375.731 631.217 376.523 633.131 378.106L631.063 380.875C629.696 379.713 628.147 379.132 626.415 379.132C625.492 379.132 624.729 379.286 624.125 379.593C623.533 379.901 623.236 380.351 623.236 380.943C623.236 381.171 623.276 381.376 623.356 381.559C623.436 381.741 623.572 381.906 623.766 382.054C623.971 382.202 624.165 382.328 624.347 382.43C624.529 382.533 624.797 382.641 625.15 382.755C625.515 382.857 625.817 382.943 626.056 383.011C626.307 383.068 626.66 383.148 627.116 383.25C627.628 383.364 628.05 383.467 628.38 383.558C628.722 383.638 629.138 383.763 629.628 383.934C630.129 384.094 630.545 384.264 630.875 384.447C631.206 384.618 631.553 384.846 631.918 385.13C632.283 385.404 632.573 385.706 632.79 386.036C633.017 386.355 633.2 386.743 633.336 387.198C633.485 387.654 633.559 388.15 633.559 388.685C633.559 389.881 633.222 390.924 632.55 391.812C631.878 392.69 630.984 393.345 629.867 393.778C628.762 394.211 627.503 394.427 626.09 394.427ZM655.741 369.852C657.245 369.852 658.612 370.194 659.843 370.877C661.085 371.55 662.059 372.49 662.765 373.697C663.472 374.905 663.825 376.249 663.825 377.73C663.825 379.964 663.05 381.826 661.5 383.319C659.951 384.811 658.031 385.558 655.741 385.558H649.64V394H645.487V369.852H655.741ZM655.673 381.644C656.778 381.644 657.701 381.274 658.441 380.533C659.182 379.781 659.552 378.847 659.552 377.73C659.552 376.591 659.182 375.646 658.441 374.894C657.701 374.142 656.778 373.766 655.673 373.766H649.64V381.644H655.673ZM680.316 376.158H684.247V394H680.316V391.437C678.744 393.43 676.659 394.427 674.062 394.427C672.41 394.427 670.911 394.023 669.567 393.214C668.222 392.394 667.169 391.271 666.405 389.847C665.653 388.423 665.277 386.834 665.277 385.079C665.277 383.325 665.653 381.735 666.405 380.311C667.169 378.887 668.222 377.77 669.567 376.961C670.911 376.141 672.41 375.731 674.062 375.731C676.671 375.731 678.756 376.722 680.316 378.705V376.158ZM674.831 390.633C676.403 390.633 677.707 390.104 678.744 389.044C679.792 387.973 680.316 386.651 680.316 385.079C680.316 383.495 679.792 382.174 678.744 381.114C677.707 380.043 676.403 379.508 674.831 379.508C673.247 379.508 671.925 380.043 670.866 381.114C669.818 382.174 669.293 383.495 669.293 385.079C669.293 386.651 669.818 387.973 670.866 389.044C671.925 390.104 673.247 390.633 674.831 390.633ZM700.226 394.171C701.958 394.171 703.399 394.621 704.55 395.521C705.701 396.432 706.407 397.674 706.669 399.247L702.602 400.34C702.556 399.623 702.248 399.047 701.679 398.614C701.109 398.193 700.38 397.982 699.491 397.982H693.356C691.772 397.982 690.491 397.56 689.511 396.717C688.531 395.886 688.041 394.792 688.041 393.436C688.041 392.547 688.252 391.716 688.673 390.941C689.095 390.155 689.665 389.551 690.382 389.129C688.776 387.637 687.973 385.774 687.973 383.541C687.973 381.319 688.764 379.462 690.348 377.97C691.932 376.477 693.903 375.731 696.261 375.731C697.72 375.731 699.075 376.044 700.329 376.671C700.556 375.714 701.058 374.962 701.833 374.415C702.619 373.868 703.576 373.595 704.704 373.595H706.139V377.235H704.909C704.362 377.235 703.9 377.377 703.524 377.662C703.16 377.936 702.955 378.306 702.909 378.773C704.014 380.152 704.567 381.741 704.567 383.541C704.567 385.751 703.769 387.603 702.174 389.095C700.579 390.588 698.608 391.334 696.261 391.334C695.042 391.334 693.937 391.14 692.946 390.753C692.308 391.174 691.989 391.744 691.989 392.462C691.989 392.963 692.182 393.373 692.57 393.692C692.957 394.011 693.464 394.171 694.091 394.171H700.226ZM696.261 379.439C695.042 379.439 694.022 379.833 693.202 380.619C692.393 381.393 691.989 382.368 691.989 383.541C691.989 384.703 692.393 385.677 693.202 386.463C694.022 387.238 695.042 387.625 696.261 387.625C697.469 387.625 698.477 387.232 699.286 386.446C700.095 385.66 700.5 384.692 700.5 383.541C700.5 382.368 700.095 381.393 699.286 380.619C698.477 379.833 697.469 379.439 696.261 379.439ZM726.168 385.113C726.168 385.637 726.134 386.15 726.066 386.651H711.608C711.927 387.939 712.599 388.97 713.625 389.745C714.661 390.508 715.903 390.89 717.35 390.89C718.467 390.89 719.503 390.656 720.46 390.189C721.429 389.722 722.181 389.135 722.716 388.429L725.365 390.702C724.442 391.864 723.269 392.775 721.845 393.436C720.432 394.097 718.9 394.427 717.248 394.427C714.422 394.427 712.069 393.527 710.189 391.727C708.321 389.927 707.387 387.688 707.387 385.011C707.387 383.279 707.797 381.707 708.617 380.294C709.438 378.87 710.565 377.753 712.001 376.944C713.448 376.135 715.049 375.731 716.803 375.731C719.481 375.731 721.708 376.625 723.485 378.414C725.274 380.191 726.168 382.424 726.168 385.113ZM716.769 379.269C715.504 379.269 714.399 379.65 713.454 380.414C712.519 381.177 711.893 382.185 711.574 383.438H721.981C721.685 382.185 721.059 381.177 720.102 380.414C719.156 379.65 718.045 379.269 716.769 379.269ZM447.997 415.852C449.729 415.852 451.352 416.16 452.868 416.775C454.394 417.39 455.699 418.233 456.781 419.304C457.864 420.364 458.718 421.64 459.345 423.132C459.971 424.625 460.285 426.22 460.285 427.917C460.285 429.615 459.971 431.21 459.345 432.703C458.718 434.195 457.864 435.477 456.781 436.548C455.699 437.619 454.394 438.462 452.868 439.077C451.352 439.692 449.729 440 447.997 440H438.632V415.852H447.997ZM447.929 436.086C450.23 436.086 452.15 435.306 453.688 433.745C455.237 432.184 456.012 430.242 456.012 427.917C456.012 425.593 455.237 423.656 453.688 422.107C452.15 420.546 450.23 419.766 447.929 419.766H442.785V436.086H447.929ZM472.555 440.427C469.832 440.427 467.559 439.533 465.736 437.744C463.913 435.955 463.002 433.734 463.002 431.079C463.002 428.424 463.913 426.203 465.736 424.414C467.559 422.625 469.832 421.731 472.555 421.731C474.333 421.731 475.95 422.141 477.409 422.961C478.878 423.77 480.029 424.893 480.861 426.328C481.693 427.752 482.108 429.336 482.108 431.079C482.108 432.822 481.693 434.412 480.861 435.847C480.029 437.271 478.878 438.394 477.409 439.214C475.95 440.023 474.333 440.427 472.555 440.427ZM468.607 435.044C469.667 436.104 470.983 436.633 472.555 436.633C474.127 436.633 475.432 436.104 476.469 435.044C477.517 433.973 478.041 432.651 478.041 431.079C478.041 429.495 477.517 428.174 476.469 427.114C475.432 426.043 474.127 425.508 472.555 425.508C470.983 425.508 469.667 426.043 468.607 427.114C467.548 428.185 467.018 429.507 467.018 431.079C467.018 432.651 467.548 433.973 468.607 435.044ZM503.351 431.113C503.351 431.637 503.317 432.15 503.249 432.651H488.791C489.11 433.939 489.782 434.97 490.807 435.745C491.844 436.508 493.086 436.89 494.533 436.89C495.649 436.89 496.686 436.656 497.643 436.189C498.611 435.722 499.363 435.135 499.899 434.429L502.548 436.702C501.625 437.864 500.451 438.775 499.027 439.436C497.615 440.097 496.082 440.427 494.43 440.427C491.605 440.427 489.252 439.527 487.372 437.727C485.504 435.927 484.569 433.688 484.569 431.011C484.569 429.279 484.979 427.707 485.8 426.294C486.62 424.87 487.748 423.753 489.184 422.944C490.631 422.135 492.231 421.731 493.986 421.731C496.663 421.731 498.891 422.625 500.668 424.414C502.457 426.191 503.351 428.424 503.351 431.113ZM493.952 425.269C492.687 425.269 491.582 425.65 490.636 426.414C489.702 427.177 489.075 428.185 488.756 429.438H499.164C498.868 428.185 498.241 427.177 497.284 426.414C496.339 425.65 495.228 425.269 493.952 425.269ZM512.819 440.427C509.948 440.427 507.475 439.516 505.402 437.693L507.436 434.924C508.905 436.326 510.677 437.026 512.75 437.026C513.787 437.026 514.636 436.855 515.297 436.514C515.958 436.16 516.288 435.676 516.288 435.061C516.288 434.788 516.214 434.543 516.066 434.326C515.929 434.11 515.758 433.927 515.553 433.779C515.36 433.631 515.069 433.489 514.682 433.352C514.294 433.215 513.952 433.107 513.656 433.027C513.371 432.948 512.967 432.845 512.443 432.72C511.919 432.594 511.492 432.492 511.161 432.412C510.831 432.321 510.415 432.19 509.914 432.019C509.412 431.848 508.996 431.677 508.666 431.506C508.347 431.335 508 431.108 507.624 430.823C507.248 430.538 506.951 430.23 506.735 429.9C506.518 429.569 506.336 429.176 506.188 428.721C506.04 428.265 505.966 427.764 505.966 427.217C505.966 426.032 506.296 425.018 506.957 424.175C507.618 423.332 508.472 422.716 509.521 422.329C510.569 421.93 511.754 421.731 513.075 421.731C515.684 421.731 517.946 422.523 519.86 424.106L517.792 426.875C516.425 425.713 514.875 425.132 513.144 425.132C512.221 425.132 511.457 425.286 510.854 425.593C510.261 425.901 509.965 426.351 509.965 426.943C509.965 427.171 510.005 427.376 510.084 427.559C510.164 427.741 510.301 427.906 510.495 428.054C510.7 428.202 510.893 428.328 511.076 428.43C511.258 428.533 511.526 428.641 511.879 428.755C512.243 428.857 512.545 428.943 512.785 429.011C513.035 429.068 513.389 429.148 513.844 429.25C514.357 429.364 514.778 429.467 515.109 429.558C515.451 429.638 515.867 429.763 516.356 429.934C516.858 430.094 517.274 430.264 517.604 430.447C517.934 430.618 518.282 430.846 518.646 431.13C519.011 431.404 519.302 431.706 519.518 432.036C519.746 432.355 519.928 432.743 520.065 433.198C520.213 433.654 520.287 434.15 520.287 434.685C520.287 435.881 519.951 436.924 519.279 437.812C518.607 438.69 517.712 439.345 516.596 439.778C515.491 440.211 514.232 440.427 512.819 440.427ZM548.52 415.852H552.689V440H548.451L536.369 422.927V440H532.216V415.852H536.437L548.52 432.925V415.852ZM566.105 440.427C563.382 440.427 561.109 439.533 559.286 437.744C557.463 435.955 556.552 433.734 556.552 431.079C556.552 428.424 557.463 426.203 559.286 424.414C561.109 422.625 563.382 421.731 566.105 421.731C567.882 421.731 569.5 422.141 570.958 422.961C572.428 423.77 573.579 424.893 574.411 426.328C575.242 427.752 575.658 429.336 575.658 431.079C575.658 432.822 575.242 434.412 574.411 435.847C573.579 437.271 572.428 438.394 570.958 439.214C569.5 440.023 567.882 440.427 566.105 440.427ZM562.157 435.044C563.217 436.104 564.533 436.633 566.105 436.633C567.677 436.633 568.982 436.104 570.019 435.044C571.067 433.973 571.591 432.651 571.591 431.079C571.591 429.495 571.067 428.174 570.019 427.114C568.982 426.043 567.677 425.508 566.105 425.508C564.533 425.508 563.217 426.043 562.157 427.114C561.098 428.185 560.568 429.507 560.568 431.079C560.568 432.651 561.098 433.973 562.157 435.044ZM589.022 425.713H583.981V434.155C583.981 434.976 584.203 435.597 584.647 436.018C585.103 436.428 585.747 436.633 586.579 436.633C587.365 436.633 588.179 436.428 589.022 436.018V439.692C588.054 440.182 586.966 440.427 585.758 440.427C583.878 440.427 582.46 439.932 581.503 438.94C580.546 437.949 580.067 436.565 580.067 434.788V425.713H577.042V422.158H580.067V417.527H583.981V422.158H589.022V425.713ZM605.309 436.086H617.392V440H601.156V415.852H617.221V419.766H605.309V425.901H616.059V429.814H605.309V436.086ZM638.241 440H633.456L628.944 433.694L624.416 440H619.665L626.278 431.045L619.767 422.158H624.569L628.979 428.379L633.388 422.158H638.139L631.627 431.045L638.241 440ZM643.163 419.133C642.457 419.133 641.864 418.894 641.386 418.416C640.907 417.937 640.668 417.35 640.668 416.655C640.668 415.938 640.907 415.345 641.386 414.878C641.864 414.411 642.457 414.177 643.163 414.177C643.881 414.177 644.479 414.411 644.958 414.878C645.436 415.345 645.675 415.938 645.675 416.655C645.675 417.362 645.436 417.954 644.958 418.433C644.479 418.9 643.881 419.133 643.163 419.133ZM641.198 440V422.158H645.128V440H641.198ZM655.827 440.427C652.956 440.427 650.483 439.516 648.41 437.693L650.443 434.924C651.913 436.326 653.685 437.026 655.758 437.026C656.795 437.026 657.644 436.855 658.305 436.514C658.965 436.16 659.296 435.676 659.296 435.061C659.296 434.788 659.222 434.543 659.074 434.326C658.937 434.11 658.766 433.927 658.561 433.779C658.367 433.631 658.077 433.489 657.689 433.352C657.302 433.215 656.96 433.107 656.664 433.027C656.379 432.948 655.975 432.845 655.451 432.72C654.927 432.594 654.499 432.492 654.169 432.412C653.839 432.321 653.423 432.19 652.921 432.019C652.42 431.848 652.004 431.677 651.674 431.506C651.355 431.335 651.007 431.108 650.631 430.823C650.255 430.538 649.959 430.23 649.743 429.9C649.526 429.569 649.344 429.176 649.196 428.721C649.048 428.265 648.974 427.764 648.974 427.217C648.974 426.032 649.304 425.018 649.965 424.175C650.626 423.332 651.48 422.716 652.528 422.329C653.576 421.93 654.761 421.731 656.083 421.731C658.692 421.731 660.954 422.523 662.868 424.106L660.8 426.875C659.433 425.713 657.883 425.132 656.151 425.132C655.229 425.132 654.465 425.286 653.861 425.593C653.269 425.901 652.973 426.351 652.973 426.943C652.973 427.171 653.013 427.376 653.092 427.559C653.172 427.741 653.309 427.906 653.502 428.054C653.708 428.202 653.901 428.328 654.083 428.43C654.266 428.533 654.534 428.641 654.887 428.755C655.251 428.857 655.553 428.943 655.792 429.011C656.043 429.068 656.396 429.148 656.852 429.25C657.365 429.364 657.786 429.467 658.117 429.558C658.458 429.638 658.874 429.763 659.364 429.934C659.866 430.094 660.281 430.264 660.612 430.447C660.942 430.618 661.29 430.846 661.654 431.13C662.019 431.404 662.309 431.706 662.526 432.036C662.754 432.355 662.936 432.743 663.073 433.198C663.221 433.654 663.295 434.15 663.295 434.685C663.295 435.881 662.959 436.924 662.287 437.812C661.614 438.69 660.72 439.345 659.604 439.778C658.498 440.211 657.239 440.427 655.827 440.427ZM676.933 425.713H671.891V434.155C671.891 434.976 672.113 435.597 672.558 436.018C673.013 436.428 673.657 436.633 674.489 436.633C675.275 436.633 676.09 436.428 676.933 436.018V439.692C675.964 440.182 674.876 440.427 673.668 440.427C671.789 440.427 670.37 439.932 669.413 438.94C668.456 437.949 667.978 436.565 667.978 434.788V425.713H664.953V422.158H667.978V417.527H671.891V422.158H676.933V425.713ZM682.47 440.273C681.684 440.273 681.017 440.011 680.47 439.487C679.935 438.963 679.667 438.308 679.667 437.522C679.667 436.736 679.935 436.075 680.47 435.54C681.017 434.993 681.684 434.719 682.47 434.719C683.267 434.719 683.934 434.993 684.469 435.54C685.005 436.075 685.272 436.736 685.272 437.522C685.272 438.308 685.005 438.963 684.469 439.487C683.934 440.011 683.267 440.273 682.47 440.273Z" fill="black"/>
<path d="M336.356 419.708C303.43 419.708 283.639 390.495 276.613 364.802L276.376 363.9C276.002 362.654 275.883 361.345 276.026 360.052C276.169 358.76 276.571 357.509 277.209 356.375C277.846 355.241 278.706 354.247 279.737 353.453C280.767 352.659 281.947 352.081 283.206 351.754C284.465 351.426 285.777 351.356 287.064 351.548C288.35 351.739 289.585 352.188 290.694 352.867C291.804 353.547 292.764 354.443 293.519 355.503C294.274 356.562 294.808 357.763 295.088 359.033L295.265 359.699C300.605 379.253 315.145 401.603 338.471 400.316C342.857 400.164 347.162 399.091 351.107 397.168C355.052 395.244 358.548 392.512 361.368 389.149C374.163 374.476 379.887 342.571 378.615 326.477C378.494 325.445 378.583 324.398 378.877 323.401C379.17 322.403 379.661 321.475 380.321 320.672C380.981 319.868 381.796 319.206 382.717 318.725C383.639 318.243 384.648 317.953 385.684 317.87C386.721 317.788 387.763 317.915 388.749 318.244C389.736 318.574 390.645 319.098 391.424 319.787C392.203 320.476 392.835 321.315 393.282 322.253C393.729 323.192 393.983 324.211 394.028 325.25C395.507 343.162 393.554 381.664 375.938 401.855C371.429 407.164 365.869 411.482 359.609 414.536C353.349 417.591 346.525 419.317 339.565 419.604C338.486 419.678 337.406 419.708 336.356 419.708Z" fill="#FFE8E3"/>
<path d="M385.7 318.15C383.656 318.316 381.762 319.287 380.434 320.848C379.106 322.41 378.451 324.434 378.615 326.478C379.236 334.332 378.186 345.944 375.464 357.54C379.351 357.376 383.238 357.876 386.957 359.019C386.077 370.147 382.169 380.823 375.656 389.889C361.294 409.843 339.758 416.218 322.999 413.821C315.5 412.756 306.906 408.822 299.673 404.784C309.487 414.355 322.647 419.72 336.356 419.738C337.406 419.738 338.486 419.738 339.565 419.649C346.525 419.362 353.349 417.636 359.609 414.581C365.869 411.526 371.428 407.209 375.937 401.9C393.554 381.709 395.447 343.207 394.027 325.295C393.955 324.277 393.681 323.284 393.222 322.373C392.763 321.462 392.128 320.65 391.353 319.986C390.579 319.322 389.681 318.817 388.71 318.502C387.74 318.187 386.717 318.068 385.7 318.15Z" fill="#FF9C88"/>
<path opacity="0.5" d="M385.7 318.15C383.656 318.316 381.762 319.287 380.434 320.848C379.106 322.41 378.451 324.434 378.615 326.478C379.236 334.332 378.186 345.944 375.464 357.54C379.351 357.376 383.238 357.876 386.957 359.019C386.077 370.147 382.169 380.823 375.656 389.889C361.294 409.843 339.758 416.218 322.999 413.821C315.5 412.756 306.906 408.822 299.673 404.784C309.487 414.355 322.647 419.72 336.356 419.738C337.406 419.738 338.486 419.738 339.565 419.649C346.525 419.362 353.349 417.636 359.609 414.581C365.869 411.526 371.428 407.209 375.937 401.9C393.554 381.709 395.447 343.207 394.027 325.295C393.955 324.277 393.681 323.284 393.222 322.373C392.763 321.462 392.128 320.65 391.353 319.986C390.579 319.322 389.681 318.817 388.71 318.502C387.74 318.187 386.717 318.068 385.7 318.15Z" fill="#FFE8E3"/>
<path d="M336.356 419.708C303.43 419.708 283.639 390.495 276.613 364.802L276.376 363.9C276.002 362.654 275.883 361.345 276.026 360.052C276.169 358.76 276.571 357.509 277.209 356.375C277.846 355.241 278.706 354.247 279.737 353.453C280.767 352.659 281.947 352.081 283.206 351.754C284.465 351.426 285.777 351.356 287.064 351.548C288.35 351.739 289.585 352.188 290.694 352.867C291.804 353.547 292.764 354.443 293.519 355.503C294.274 356.562 294.808 357.763 295.088 359.033L295.265 359.699C300.605 379.253 315.145 401.603 338.471 400.316C342.857 400.164 347.162 399.091 351.107 397.168C355.052 395.244 358.548 392.512 361.368 389.149C374.163 374.476 379.887 342.571 378.615 326.477C378.494 325.445 378.583 324.398 378.877 323.401C379.17 322.403 379.661 321.475 380.321 320.672C380.981 319.868 381.796 319.206 382.717 318.725C383.639 318.243 384.648 317.953 385.684 317.87C386.721 317.788 387.763 317.915 388.749 318.244C389.736 318.574 390.645 319.098 391.424 319.787C392.203 320.476 392.835 321.315 393.282 322.253C393.729 323.192 393.983 324.211 394.028 325.25C395.507 343.162 393.554 381.664 375.938 401.855C371.429 407.164 365.869 411.482 359.609 414.536C353.349 417.591 346.525 419.317 339.565 419.604C338.486 419.678 337.406 419.708 336.356 419.708Z" stroke="black" stroke-width="1.1133" stroke-linecap="round" stroke-linejoin="round"/>
<path d="M317.364 399.695C318.148 396.071 309.48 401.736 302.217 407.017C304.904 409.287 307.796 411.302 310.855 413.037C313.444 408.821 316.609 403.186 317.364 399.695Z" fill="#FF9C88" stroke="black" stroke-width="1.1133" stroke-linecap="round" stroke-linejoin="round"/>
<path d="M336.356 419.709C337.406 419.709 338.486 419.709 339.565 419.62C342.708 419.444 345.83 419.003 348.899 418.303C344.816 412.979 339.195 405.938 337.583 405.405C335.734 404.784 332.17 413.851 330.188 419.354C332.235 419.592 334.294 419.711 336.356 419.709Z" fill="#FF9C88" stroke="black" stroke-width="1.1133" stroke-linecap="round" stroke-linejoin="round"/>
<path d="M295.265 359.7L295.088 359.034C294.808 357.764 294.274 356.563 293.519 355.504C292.764 354.444 291.804 353.548 290.694 352.868C289.585 352.189 288.35 351.74 287.064 351.549C285.777 351.357 284.465 351.427 283.206 351.755C281.947 352.082 280.767 352.66 279.737 353.454C278.706 354.248 277.846 355.242 277.209 356.376C276.571 357.51 276.169 358.76 276.026 360.053C275.883 361.346 276.002 362.655 276.376 363.901L276.613 364.803C279.079 373.826 282.868 382.434 287.855 390.348L305.471 381.961C300.852 375.162 297.402 367.637 295.265 359.7Z" fill="#FF9C88" stroke="black" stroke-width="1.1133" stroke-linecap="round" stroke-linejoin="round"/>
<path d="M375.938 401.854C377.291 400.287 378.546 398.637 379.695 396.914C374.104 395.005 365.732 392.373 362.625 392.654C358.942 392.994 363.942 404.827 366.516 410.403C369.98 407.932 373.142 405.063 375.938 401.854Z" fill="#FF9C88" stroke="black" stroke-width="1.1133" stroke-linecap="round" stroke-linejoin="round"/>
<path d="M376.248 370.245C375.656 371.428 382.889 376.694 387.771 380.081C389.319 375.474 390.564 370.77 391.498 366C385.581 367.183 376.825 369.091 376.248 370.245Z" fill="#FF9C88" stroke="black" stroke-width="1.1133" stroke-linecap="round" stroke-linejoin="round"/>
<path d="M393.895 348.368C394.22 344.153 394.383 340.129 394.398 336.432C389.309 339.227 383.274 343.103 383.274 345.647C383.274 348.191 388.925 348.501 393.895 348.368Z" fill="#FF9C88" stroke="black" stroke-width="1.1133" stroke-linecap="round" stroke-linejoin="round"/>
<path d="M314.257 233.927C314.257 233.927 299.895 275.52 307.631 307.884C309.922 317.355 314.37 326.168 320.628 333.637C326.885 341.106 334.784 347.028 343.707 350.942C343.707 350.942 322.718 358.338 327.436 369.712C332.155 381.087 350.245 373.765 356.147 370.082C362.048 366.399 369.459 355.365 370.494 347.998C371.152 344.235 371.4 340.411 371.234 336.594C371.234 336.594 395.152 334.021 411.348 320.767C411.348 320.767 425.711 332.172 436.02 329.968C446.33 327.764 461.047 309.348 459.568 292.797C458.089 276.245 448.549 276.26 442.721 278.775C439.696 279.918 436.937 281.67 434.615 283.922C434.615 283.922 443.076 273.568 434.615 259.265C432.118 255.069 428.699 251.497 424.616 248.819C420.534 246.141 415.895 244.427 411.052 243.808C411.052 243.808 406.615 220.245 393.391 211.414C380.168 202.584 333.028 193.443 314.257 233.927Z" fill="#FFE8E3"/>
<path d="M423.611 248.231C416.782 259.621 407.333 269.217 396.05 276.22C384.766 283.223 371.973 287.431 358.735 288.493C329.448 291.067 313.03 285.298 305.486 281.29C306.402 265.197 309.384 249.289 314.361 233.957C333.132 193.473 380.242 202.673 393.495 211.504C406.748 220.334 411.156 243.897 411.156 243.897C415.566 244.451 419.81 245.927 423.611 248.231ZM442.721 278.775C439.696 279.919 436.937 281.671 434.616 283.923C436.407 281.453 437.588 278.594 438.062 275.58C418.167 285.491 419.721 306.642 417.25 306.642C414.203 306.642 412.695 296.007 412.695 296.007C412.695 296.007 408.893 311.198 386.07 321.848C363.247 332.498 337.436 324.126 337.436 324.126C337.436 324.126 342.761 336.284 329.079 334.761C325.239 334.394 321.557 333.049 318.384 330.856C324.945 339.603 333.659 346.503 343.678 350.884C343.678 350.884 322.689 358.279 327.407 369.654C332.126 381.029 350.23 373.707 356.117 370.024C362.004 366.341 369.43 355.306 370.465 347.94C371.123 344.177 371.371 340.353 371.205 336.536C371.205 336.536 395.122 333.962 411.319 320.709C411.319 320.709 425.682 332.113 435.991 329.909C446.301 327.705 461.018 309.29 459.539 292.738C458.06 276.187 448.549 276.261 442.721 278.775Z" fill="#FF9C88"/>
<path opacity="0.5" d="M423.611 248.231C416.782 259.621 407.333 269.217 396.05 276.22C384.766 283.223 371.973 287.431 358.735 288.493C329.448 291.067 313.03 285.298 305.486 281.29C306.402 265.197 309.384 249.289 314.361 233.957C333.132 193.473 380.242 202.673 393.495 211.504C406.748 220.334 411.156 243.897 411.156 243.897C415.566 244.451 419.81 245.927 423.611 248.231ZM442.721 278.775C439.696 279.919 436.937 281.671 434.616 283.923C436.407 281.453 437.588 278.594 438.062 275.58C418.167 285.491 419.721 306.642 417.25 306.642C414.203 306.642 412.695 296.007 412.695 296.007C412.695 296.007 408.893 311.198 386.07 321.848C363.247 332.498 337.436 324.126 337.436 324.126C337.436 324.126 342.761 336.284 329.079 334.761C325.239 334.394 321.557 333.049 318.384 330.856C324.945 339.603 333.659 346.503 343.678 350.884C343.678 350.884 322.689 358.279 327.407 369.654C332.126 381.029 350.23 373.707 356.117 370.024C362.004 366.341 369.43 355.306 370.465 347.94C371.123 344.177 371.371 340.353 371.205 336.536C371.205 336.536 395.122 333.962 411.319 320.709C411.319 320.709 425.682 332.113 435.991 329.909C446.301 327.705 461.018 309.29 459.539 292.738C458.06 276.187 448.549 276.261 442.721 278.775Z" fill="#FFE8E3"/>
<path d="M371.308 336.625C363.37 336.836 355.489 335.225 348.27 331.915C341.052 328.604 334.689 323.683 329.67 317.529" stroke="black" stroke-width="1.1133" stroke-linecap="round" stroke-linejoin="round"/>
<path d="M314.257 233.927C314.257 233.927 299.895 275.52 307.631 307.884C309.922 317.355 314.37 326.168 320.628 333.637C326.885 341.106 334.784 347.028 343.707 350.942C343.707 350.942 322.718 358.338 327.436 369.712C332.155 381.087 350.245 373.765 356.147 370.082C362.048 366.399 369.459 355.365 370.494 347.998C371.152 344.235 371.4 340.411 371.234 336.594C371.234 336.594 395.152 334.021 411.348 320.767C411.348 320.767 425.711 332.172 436.02 329.968C446.33 327.764 461.047 309.348 459.568 292.797C458.089 276.245 448.549 276.26 442.721 278.775C439.696 279.918 436.937 281.67 434.615 283.922C434.615 283.922 443.076 273.568 434.615 259.265C432.118 255.069 428.699 251.497 424.616 248.819C420.534 246.141 415.895 244.427 411.052 243.808C411.052 243.808 406.615 220.245 393.391 211.414C380.168 202.584 333.028 193.443 314.257 233.927Z" stroke="black" stroke-width="1.1133" stroke-linecap="round" stroke-linejoin="round"/>
<path d="M434.615 283.982C434.615 283.982 426.894 289.145 423.211 304.971" stroke="black" stroke-width="1.1133" stroke-linecap="round" stroke-linejoin="round"/>
<path d="M448.801 290.757C447.898 293.449 445.428 295.061 443.298 294.336C441.168 293.612 440.192 290.846 441.094 288.154C441.996 285.461 444.467 283.849 446.597 284.574C448.727 285.299 449.718 288.065 448.801 290.757Z" fill="#FFE8E3" stroke="black" stroke-width="1.1133" stroke-linecap="round" stroke-linejoin="round"/>
<path d="M456.418 295.548C455.516 298.24 453.046 299.852 450.916 299.127C448.786 298.403 447.795 295.637 448.712 292.944C449.629 290.252 452.084 288.64 454.214 289.365C456.344 290.09 457.335 292.856 456.418 295.548Z" fill="#FFE8E3" stroke="black" stroke-width="1.1133" stroke-linecap="round" stroke-linejoin="round"/>
<path d="M458.045 302.723C457.75 303.218 457.32 303.619 456.806 303.88C456.291 304.141 455.714 304.25 455.14 304.196C454.566 304.141 454.019 303.925 453.563 303.572C453.107 303.22 452.761 302.745 452.564 302.203C452.367 301.661 452.328 301.074 452.451 300.511C452.574 299.948 452.855 299.431 453.26 299.021C453.665 298.611 454.178 298.324 454.74 298.194C455.301 298.064 455.888 298.096 456.433 298.286C457.218 298.678 457.823 299.358 458.123 300.183C458.423 301.009 458.395 301.918 458.045 302.723Z" fill="white" stroke="black" stroke-width="1.1133" stroke-linecap="round" stroke-linejoin="round"/>
<path d="M448.327 312.575C445.664 317.382 440.339 319.512 436.42 317.337C432.5 315.163 431.494 309.528 434.157 304.72C436.819 299.913 442.144 297.783 446.064 299.958C449.983 302.132 450.989 307.767 448.327 312.575Z" fill="#FFE8E3" stroke="black" stroke-width="1.1133" stroke-linecap="round" stroke-linejoin="round"/>
<path d="M343.707 350.973C348.666 353.281 354.302 353.676 359.534 352.082" stroke="black" stroke-width="1.1133" stroke-linecap="round" stroke-linejoin="round"/>
<path d="M327.511 369.743C327.511 369.743 328.99 363.486 338.175 359.078" stroke="black" stroke-width="1.1133" stroke-linecap="round" stroke-linejoin="round"/>
<path d="M336.711 375.274C336.711 375.274 340.394 366.399 346.651 362.391" stroke="black" stroke-width="1.1133" stroke-linecap="round" stroke-linejoin="round"/>
<path d="M191.563 273.45C189.998 272.201 188.751 270.6 187.923 268.778C187.095 266.955 186.71 264.963 186.8 262.963V227.892H96.3353C94.1255 227.975 91.924 227.579 89.8815 226.732C87.8391 225.884 86.004 224.605 84.5022 222.982C81.5433 219.851 79.9198 215.692 79.976 211.385C79.964 207.885 80.9938 204.461 82.9343 201.549L169.583 65.3788C176.091 55.3305 184.739 50.3064 195.527 50.3064C201.327 50.1093 206.99 52.0938 211.398 55.8679C215.628 59.5658 217.743 65.0633 217.743 72.3604V204.729H240.759C242.349 204.633 243.94 204.888 245.42 205.476C246.9 206.064 248.232 206.97 249.323 208.131C251.269 210.412 252.338 213.312 252.338 216.311C252.338 219.309 251.269 222.209 249.323 224.49C248.232 225.651 246.9 226.557 245.42 227.145C243.94 227.733 242.349 227.988 240.759 227.892H217.581V262.963C217.677 264.947 217.311 266.927 216.513 268.747C215.715 270.567 214.506 272.176 212.981 273.45C210.003 275.946 206.231 277.295 202.346 277.251C198.418 277.282 194.603 275.937 191.563 273.45ZM186.741 204.729V82.8475L110.875 204.729H186.741Z" fill="black"/>
<path d="M317.098 274.16C308.231 270.291 300.379 264.423 294.156 257.017C287.905 249.192 283.024 240.365 279.72 230.91C275.974 220.696 273.341 210.109 271.865 199.33C270.326 187.595 269.585 175.77 269.647 163.934C269.647 85.9638 296.271 46.9785 349.52 46.9785C402.77 46.9785 429.33 85.9638 429.202 163.934C429.255 175.713 428.538 187.482 427.057 199.168C425.63 209.948 423.021 220.538 419.277 230.747C415.972 240.202 411.091 249.029 404.84 256.854C398.609 264.271 390.761 270.16 381.899 274.071C371.71 278.576 360.659 280.797 349.52 280.58C338.376 280.803 327.316 278.613 317.098 274.16ZM365.258 251.781C369.714 249.88 373.758 247.132 377.166 243.69C380.616 240.016 383.453 235.811 385.567 231.235C387.9 226.388 389.786 221.338 391.203 216.148C392.694 210.493 393.782 204.74 394.457 198.931C395.256 192.521 395.788 186.649 396.054 181.314C396.321 175.98 396.449 170.186 396.439 163.934C396.439 157.377 396.311 151.322 396.054 145.771C395.798 140.219 395.241 134.263 394.383 127.902C393.646 122.098 392.535 116.346 391.055 110.685C389.655 105.547 387.768 100.555 385.419 95.7755C383.289 91.2725 380.447 87.1421 377.003 83.5429C373.615 80.1697 369.594 77.5003 365.17 75.6887C355.056 71.7841 343.851 71.7841 333.738 75.6887C329.346 77.4785 325.354 80.1232 321.994 83.469C318.575 87.0524 315.74 91.1502 313.592 95.6127C311.223 100.349 309.358 105.322 308.03 110.449C306.586 116.144 305.5 121.924 304.776 127.755C303.918 134.204 303.361 140.209 303.105 145.771C302.848 151.332 302.715 157.387 302.706 163.934C302.706 170.176 302.839 175.994 303.105 181.388C303.371 186.782 303.899 192.699 304.688 199.138C305.37 204.946 306.457 210.699 307.942 216.355C309.338 221.543 311.205 226.593 313.518 231.442C315.611 235.99 318.423 240.17 321.846 243.823C325.228 247.243 329.248 249.967 333.679 251.84C343.802 255.961 355.135 255.961 365.258 251.84V251.781Z" fill="black"/>
<path d="M566.259 273.451C564.695 272.202 563.447 270.602 562.62 268.779C561.792 266.956 561.407 264.964 561.496 262.964V227.893H471.032C468.822 227.976 466.621 227.58 464.578 226.733C462.536 225.885 460.701 224.606 459.199 222.983C456.24 219.853 454.617 215.693 454.673 211.386C454.661 207.886 455.691 204.462 457.631 201.55L544.279 65.3799C550.728 55.3316 559.352 50.3075 570.149 50.3075C575.98 50.0879 581.678 52.0738 586.109 55.869C590.34 59.5669 592.455 65.0644 592.455 72.3615V204.73H615.47C617.06 204.634 618.651 204.889 620.131 205.477C621.611 206.065 622.944 206.972 624.035 208.132C625.981 210.413 627.05 213.313 627.05 216.312C627.05 219.31 625.981 222.21 624.035 224.491C622.944 225.652 621.611 226.558 620.131 227.146C618.651 227.734 617.06 227.989 615.47 227.893H592.278V262.964C592.373 264.949 592.008 266.928 591.21 268.748C590.412 270.568 589.203 272.177 587.677 273.451C584.7 275.947 580.927 277.296 577.042 277.252C573.114 277.283 569.299 275.939 566.259 273.451ZM561.496 204.73V82.8486L485.631 204.73H561.496Z" fill="black"/>
<path d="M284.438 212.954C284.438 212.954 268.981 234.667 266.777 256.751C264.573 278.835 267.147 293.552 273.773 299.084C280.4 304.616 287.012 302.397 290.695 297.235C294.378 292.073 288.491 274.042 288.491 274.042C288.491 274.042 294.748 256.751 304.318 244.607C313.888 232.463 315.722 230.615 315.722 230.615C315.722 230.615 299.155 211.844 284.438 212.954Z" fill="#FFE8E3"/>
<path d="M284.438 212.954C281.065 217.937 278.073 223.168 275.489 228.603C282.884 231.561 294.348 237.626 301.625 248.364C302.513 247.077 303.43 245.805 304.376 244.607C313.946 232.463 315.781 230.615 315.781 230.615C315.781 230.615 299.155 211.844 284.438 212.954Z" fill="#FF9C88"/>
<path opacity="0.5" d="M284.438 212.954C281.065 217.937 278.073 223.168 275.489 228.603C282.884 231.561 294.348 237.626 301.625 248.364C302.513 247.077 303.43 245.805 304.376 244.607C313.946 232.463 315.781 230.615 315.781 230.615C315.781 230.615 299.155 211.844 284.438 212.954Z" fill="#FFE8E3"/>
<path d="M284.438 212.954C284.438 212.954 268.981 234.667 266.777 256.751C264.573 278.835 267.147 293.552 273.773 299.084C280.4 304.616 287.012 302.397 290.695 297.235C294.378 292.073 288.491 274.042 288.491 274.042C288.491 274.042 294.748 256.751 304.318 244.607C313.888 232.463 315.722 230.615 315.722 230.615C315.722 230.615 299.155 211.844 284.438 212.954Z" stroke="black" stroke-width="1.1133" stroke-linecap="round" stroke-linejoin="round"/>
<path d="M273.773 299.084C271.966 294.259 271.088 289.135 271.185 283.982" stroke="black" stroke-width="1.1133" stroke-linecap="round" stroke-linejoin="round"/>
<path d="M283.699 301.288C283.699 301.288 280.03 295.031 279.661 284.352" stroke="black" stroke-width="1.1133" stroke-linecap="round" stroke-linejoin="round"/>
<path d="M289.23 252.329C289.23 248.453 281.835 240.88 271.555 237.537C270.173 241.141 269.031 244.832 268.138 248.586C272.132 249.27 276.01 250.51 279.66 252.269C285.177 255.272 289.23 256.751 289.23 252.329Z" fill="#FF9C88" stroke="black" stroke-width="1.1133" stroke-linecap="round" stroke-linejoin="round"/>
<path d="M283.535 214.27C281.151 217.904 278.959 221.662 276.968 225.526C280.081 226.349 283.066 227.593 285.843 229.224C297.247 235.835 299.451 236.619 295.782 227.005C293.564 220.97 288.268 216.873 283.535 214.27Z" fill="#FF9C88" stroke="black" stroke-width="1.1133" stroke-linecap="round" stroke-linejoin="round"/>
<path d="M405.506 202.23C405.506 202.23 423.019 222.317 427.382 244.09C431.746 265.863 430.636 280.758 424.572 286.897C418.507 293.035 411.718 291.497 407.547 286.719C403.376 281.942 407.547 263.437 407.547 263.437C407.547 263.437 399.619 246.827 388.91 235.674C378.201 224.521 376.174 222.879 376.174 222.879C376.174 222.879 390.744 202.571 405.506 202.23Z" fill="#FFE8E3"/>
<path d="M405.506 202.23C390.715 202.571 376.101 222.938 376.101 222.938C376.101 222.938 378.112 224.595 388.836 235.733C390.842 237.845 392.728 240.067 394.486 242.389C400.083 232.935 408.079 225.128 417.665 219.758C414.137 213.568 410.069 207.702 405.506 202.23Z" fill="#FF9C88"/>
<path opacity="0.5" d="M405.506 202.23C390.715 202.571 376.101 222.938 376.101 222.938C376.101 222.938 378.112 224.595 388.836 235.733C390.842 237.845 392.728 240.067 394.486 242.389C400.083 232.935 408.079 225.128 417.665 219.758C414.137 213.568 410.069 207.702 405.506 202.23Z" fill="#FFE8E3"/>
<path d="M405.506 202.23C405.506 202.23 423.019 222.317 427.382 244.09C431.746 265.863 430.636 280.758 424.572 286.897C418.507 293.035 411.718 291.497 407.547 286.719C403.376 281.942 407.547 263.437 407.547 263.437C407.547 263.437 399.619 246.827 388.91 235.674C378.201 224.521 376.174 222.879 376.174 222.879C376.174 222.879 390.744 202.571 405.506 202.23Z" stroke="black" stroke-width="1.1133" stroke-linecap="round" stroke-linejoin="round"/>
<path d="M424.572 286.896C425.898 281.922 426.27 276.743 425.667 271.631" stroke="black" stroke-width="1.1133" stroke-linecap="round" stroke-linejoin="round"/>
<path d="M414.898 290.061C414.898 290.061 417.96 283.479 417.28 272.814" stroke="black" stroke-width="1.1133" stroke-linecap="round" stroke-linejoin="round"/>
<path d="M404.604 241.885C404.234 238.024 410.846 229.771 420.756 225.496C422.47 228.944 423.952 232.501 425.193 236.146C421.293 237.233 417.56 238.851 414.1 240.953C408.923 244.429 405.047 246.234 404.604 241.885Z" fill="#FF9C88" stroke="black" stroke-width="1.1133" stroke-linecap="round" stroke-linejoin="round"/>
<path d="M406.526 203.457C409.247 206.814 411.785 210.315 414.129 213.944C411.101 215.065 408.24 216.593 405.624 218.485C394.93 226.206 392.8 227.153 395.521 217.272C397.222 211.104 402.074 206.504 406.526 203.457Z" fill="#FF9C88" stroke="black" stroke-width="1.1133" stroke-linecap="round" stroke-linejoin="round"/>
<path d="M282.988 194.168C282.988 194.168 278.433 209.537 280.148 215.793C281.864 222.05 289.822 216.37 297.795 223.189C305.767 230.008 313.148 242.314 343.337 244.592C373.527 246.87 391.75 230.585 398.066 221.473C404.382 212.362 403.76 201.549 414.573 200.987C425.385 200.425 416.289 179.347 412.872 175.931C412.872 175.931 433.935 144.617 433.935 136.644C433.935 128.672 414.011 130.373 389.561 137.783C389.561 137.783 371.338 128.095 338.308 133.79C305.279 139.484 295.605 149.173 295.605 149.173C295.605 149.173 254.604 154.291 251.764 159.408C248.924 164.526 257.37 186.196 282.988 194.168Z" fill="#FFE8E3"/>
<path d="M414.529 201.002C425.356 200.425 416.244 179.362 412.828 175.945C412.828 175.945 416.836 170.029 421.347 162.633C409.115 156.243 397.104 152.693 393.909 156.288C387.031 164.009 390.774 178.8 393.909 193.266C397.045 207.732 384.517 213.9 375.76 226.414C367.004 238.927 354.505 225.156 354.505 225.156C350.068 243.306 331.356 231.413 331.356 231.413C316.979 226.976 292.588 212.658 297.588 202.644C302.587 192.63 303.844 183.252 295.088 175.132C286.331 167.011 251.409 160.252 251.409 160.252C249.574 166.42 258.435 186.625 283.003 194.272C283.003 194.272 278.447 209.64 280.163 215.897C281.879 222.154 289.837 216.474 297.809 223.293C305.782 230.112 313.163 242.418 343.352 244.696C373.542 246.974 391.765 230.688 398.081 221.577C404.396 212.465 403.701 201.564 414.529 201.002Z" fill="#FF9C88"/>
<path opacity="0.5" d="M414.529 201.002C425.356 200.425 416.244 179.362 412.828 175.945C412.828 175.945 416.836 170.029 421.347 162.633C409.115 156.243 397.104 152.693 393.909 156.288C387.031 164.009 390.774 178.8 393.909 193.266C397.045 207.732 384.517 213.9 375.76 226.414C367.004 238.927 354.505 225.156 354.505 225.156C350.068 243.306 331.356 231.413 331.356 231.413C316.979 226.976 292.588 212.658 297.588 202.644C302.587 192.63 303.844 183.252 295.088 175.132C286.331 167.011 251.409 160.252 251.409 160.252C249.574 166.42 258.435 186.625 283.003 194.272C283.003 194.272 278.447 209.64 280.163 215.897C281.879 222.154 289.837 216.474 297.809 223.293C305.782 230.112 313.163 242.418 343.352 244.696C373.542 246.974 391.765 230.688 398.081 221.577C404.396 212.465 403.701 201.564 414.529 201.002Z" fill="#FFE8E3"/>
<path d="M369.992 204.434C370.42 208.043 362.404 211.933 352.123 213.131C341.843 214.329 333.146 212.377 332.717 208.694C332.288 205.011 340.305 201.209 350.6 200.011C360.895 198.813 369.577 200.84 369.992 204.434Z" fill="#FF9C88"/>
<path opacity="0.5" d="M369.992 204.434C370.42 208.043 362.404 211.933 352.123 213.131C341.843 214.329 333.146 212.377 332.717 208.694C332.288 205.011 340.305 201.209 350.6 200.011C360.895 198.813 369.577 200.84 369.992 204.434Z" fill="#FFE8E3"/>
<path d="M282.988 194.168C282.988 194.168 278.433 209.537 280.148 215.793C281.864 222.05 289.822 216.37 297.795 223.189C305.767 230.008 313.148 242.314 343.337 244.592C373.527 246.87 391.75 230.585 398.066 221.473C404.382 212.362 403.76 201.549 414.573 200.987C425.385 200.425 416.289 179.347 412.872 175.931C412.872 175.931 433.935 144.617 433.935 136.644C433.935 128.672 414.011 130.373 389.561 137.783C389.561 137.783 371.338 128.095 338.308 133.79C305.279 139.484 295.605 149.173 295.605 149.173C295.605 149.173 254.604 154.291 251.764 159.408C248.924 164.526 257.37 186.196 282.988 194.168Z" stroke="black" stroke-width="1.1133" stroke-miterlimit="10"/>
<path d="M400.757 148.61C385.966 158.55 391.187 168.49 397.799 174.007C401.837 177.379 408.345 176.965 412.798 176.019C412.798 176.019 433.861 144.705 433.861 136.732C433.875 136.659 415.475 138.596 400.757 148.61Z" fill="#FF9C88" stroke="black" stroke-width="1.1133" stroke-miterlimit="10"/>
<path d="M251.394 160.149C249.56 166.317 258.42 186.522 282.989 194.169C282.989 194.169 301.745 192.335 295.488 177.248C289.645 163.166 260.107 159.661 251.394 160.149Z" fill="#FF9C88" stroke="black" stroke-width="1.1133" stroke-miterlimit="10"/>
<path d="M338.22 133.819C336.282 134.159 334.418 134.514 332.628 134.869C335.587 149.809 340.453 174.688 344.802 174.688C349.15 174.688 352.479 147.412 353.898 132.133C348.641 132.354 343.404 132.917 338.22 133.819Z" fill="#FF9C88" stroke="black" stroke-width="1.1133" stroke-miterlimit="10"/>
<path d="M321.254 170.251C325.78 167.588 325.1 147.576 324.375 136.719C319.703 137.879 315.105 139.317 310.604 141.023C312.246 151.185 316.417 173.091 321.254 170.251Z" fill="#FF9C88" stroke="black" stroke-width="1.1133" stroke-miterlimit="10"/>
<path d="M365.051 161.05C369.681 162.677 372.284 146.037 373.748 133.227C369.072 132.465 364.345 132.065 359.608 132.029C359.46 142.546 360.037 159.29 365.051 161.05Z" fill="#FF9C88" stroke="black" stroke-width="1.1133" stroke-miterlimit="10"/>
<path d="M358.854 218.649C354.534 217.513 349.943 218.08 346.03 220.231C345.858 220.331 345.712 220.468 345.603 220.634C345.494 220.8 345.426 220.988 345.403 221.185C345.38 221.382 345.403 221.582 345.471 221.768C345.538 221.954 345.649 222.122 345.793 222.258L353.647 229.654C353.794 229.792 353.972 229.892 354.166 229.948C354.36 230.004 354.565 230.012 354.763 229.973C354.961 229.934 355.147 229.849 355.305 229.724C355.463 229.599 355.59 229.438 355.674 229.254L359.697 220.379C359.769 220.211 359.804 220.03 359.799 219.847C359.795 219.665 359.751 219.485 359.671 219.321C359.591 219.157 359.477 219.012 359.336 218.896C359.195 218.78 359.03 218.696 358.854 218.649Z" fill="#FF9C88" stroke="black" stroke-width="1.1133" stroke-linecap="round" stroke-linejoin="round"/>
<path d="M340.187 206.298C341.267 209.153 340.838 211.963 339.225 212.57C337.613 213.176 335.424 211.371 334.329 208.531C333.235 205.691 333.679 202.866 335.291 202.26C336.903 201.653 339.092 203.458 340.187 206.298Z" fill="black"/>
<path d="M361.605 204.27C361.043 207.229 361.96 209.965 363.661 210.276C365.362 210.586 367.196 208.427 367.758 205.424C368.321 202.421 367.404 199.744 365.702 199.419C364.001 199.093 362.167 201.283 361.605 204.27Z" fill="black"/>
<path d="M355.674 229.239C355.674 229.239 345.172 243.498 335.602 229.15" stroke="black" stroke-width="1.1133" stroke-linecap="round" stroke-linejoin="round"/>
<path d="M353.646 229.639C353.646 229.639 360.628 236.872 367.994 232.819C375.36 228.766 370.952 222.465 370.952 222.465" stroke="black" stroke-width="1.1133" stroke-linecap="round" stroke-linejoin="round"/>
<path d="M321.624 194.908C321.624 194.908 324.197 185.707 336.341 187.911" stroke="black" stroke-width="3.33991" stroke-linecap="round" stroke-linejoin="round"/>
<path d="M358.424 186.446C358.424 186.446 367.625 180.929 376.085 189.76" stroke="black" stroke-width="3.33991" stroke-linecap="round" stroke-linejoin="round"/>
<path d="M314.628 219.58L323.458 221.784" stroke="black" stroke-width="1.1133" stroke-miterlimit="10" stroke-linecap="round"/>
<path d="M322.349 225.098L314.628 226.562" stroke="black" stroke-width="1.1133" stroke-miterlimit="10" stroke-linecap="round"/>
<path d="M323.828 229.15L318.311 232.094" stroke="black" stroke-width="1.1133" stroke-miterlimit="10" stroke-linecap="round"/>
<path d="M379.769 215.527L387.504 213.678" stroke="black" stroke-width="1.1133" stroke-miterlimit="10" stroke-linecap="round"/>
<path d="M381.248 219.211H386.395" stroke="black" stroke-width="1.1133" stroke-miterlimit="10" stroke-linecap="round"/>
<path d="M382.342 222.893L389.339 224.727" stroke="black" stroke-width="1.1133" stroke-miterlimit="10" stroke-linecap="round"/>
</svg>
