<svg width="1014" height="886" viewBox="0 0 1014 886" fill="none" xmlns="http://www.w3.org/2000/svg">
<path d="M104.397 481.973L146.025 384.347L901.332 420.405L859.705 518.031L104.397 481.973Z" fill="#FF9394"/>
<path d="M457.138 498.814L477.88 400.192L836.35 417.305L815.608 515.928L457.138 498.814Z" fill="#FF9394"/>
<path d="M143.204 482.562L233.298 486.457L227.287 387L144.883 382.248C120.462 336.658 88.0029 348.068 76.6353 355.243C33.1432 381.148 44.973 417.837 62.0682 431.496C39.2729 443.706 43.2969 472.516 47.4574 483.326C75.2066 537.564 122.851 505.416 143.204 482.562Z" fill="#FF9394"/>
<path d="M864.891 420.104L774.43 415.667L773.34 514.037L852.533 518.88C873.285 566.253 909.321 558.53 921.219 552.273C966.618 529.877 957.716 492.369 941.751 477.405C965.437 467.029 963.696 437.992 960.401 426.888C937.013 370.631 886.983 398.925 864.891 420.104Z" fill="#FF9394"/>
</svg>
