<svg width="76" height="326" viewBox="0 0 76 326" fill="none" xmlns="http://www.w3.org/2000/svg">
<path d="M11 315L35.378 269.465C35.7337 268.8 36.6688 268.753 37.0894 269.379L74.5 325" stroke="black" stroke-width="3"/>
<rect x="14" y="-32" width="6" height="137" fill="url(#paint0_linear_446_12992)"/>
<rect x="52" y="-32" width="6" height="137" fill="url(#paint1_linear_446_12992)"/>
<path d="M57.8306 194H10.879L2.07948 148.758C0.709226 141.713 0.871692 134.456 2.55584 127.479L5.33646 115.96C8.58808 102.49 20.642 93 34.4988 93H35.3426C48.6702 93 60.4 101.793 64.1383 114.585L67.3027 125.414C69.7262 133.707 69.9592 142.487 67.979 150.898L57.8306 194Z" fill="#E39D0B" stroke="black"/>
<mask id="mask0_446_12992" style="mask-type:alpha" maskUnits="userSpaceOnUse" x="5" y="99" width="60" height="90">
<path d="M54.6855 188H14.3468L6.99057 148.753C5.67867 141.754 5.87698 134.555 7.57225 127.639L9.4257 120.077C12.3149 108.29 22.8817 100 35.0183 100C46.6842 100 56.9615 107.671 60.2799 118.855L62.2807 125.598C64.7192 133.817 65.0037 142.524 63.1068 150.884L54.6855 188Z" fill="#E39D0B" stroke="black"/>
</mask>
<g mask="url(#mask0_446_12992)">
<path d="M54.6855 188H14.3468L6.99057 148.753C5.67867 141.754 5.87698 134.555 7.57225 127.639L9.4257 120.077C12.3149 108.29 22.8817 100 35.0183 100C46.6842 100 56.9615 107.671 60.2799 118.855L62.2807 125.598C64.7192 133.817 65.0037 142.524 63.1068 150.884L54.6855 188Z" fill="#E39D0B" stroke="black"/>
<rect x="19.7466" y="78.8613" width="102.613" height="8" transform="rotate(31.6356 19.7466 78.8613)" fill="black"/>
<rect x="12.7368" y="89.4941" width="102.613" height="8" transform="rotate(31.6356 12.7368 89.4941)" fill="black"/>
<rect x="5.729" y="100.127" width="102.613" height="8" transform="rotate(31.6356 5.729 100.127)" fill="black"/>
<rect x="-1.27979" y="110.762" width="102.613" height="8" transform="rotate(31.6356 -1.27979 110.762)" fill="black"/>
<rect x="-8.2876" y="121.395" width="102.613" height="8" transform="rotate(31.6356 -8.2876 121.395)" fill="black"/>
<rect x="-15.2964" y="132.027" width="102.613" height="8" transform="rotate(31.6356 -15.2964 132.027)" fill="black"/>
<rect x="-22.3032" y="142.66" width="102.613" height="8" transform="rotate(31.6356 -22.3032 142.66)" fill="black"/>
<rect x="-29.312" y="153.295" width="102.613" height="8" transform="rotate(31.6356 -29.312 153.295)" fill="black"/>
</g>
<rect x="29" y="204" width="11" height="17" fill="#9B989A"/>
<path d="M13.1727 205.148L11 194H57.9426L55.9933 205.043C55.4873 207.91 52.996 210 50.0847 210H19.0619C16.1907 210 13.7219 207.966 13.1727 205.148Z" fill="url(#paint2_linear_446_12992)"/>
<path d="M10.3857 194H58.3423L57.8864 196H11L10.3857 194Z" fill="black"/>
<path d="M17.2322 228.918L17.2321 228.918C16.9219 229.693 16.9219 230.557 17.2321 231.332L17.2322 231.332L20.9822 240.707L20.518 240.893L20.9822 240.707C21.4757 241.941 22.6707 242.75 23.9997 242.75H25.8747H26.3747V243.25C26.3747 245.045 27.8299 246.5 29.6247 246.5H31.4997H31.9997V247V248.44C31.9997 250.201 31.1399 251.829 29.7125 252.527L29.4929 252.077L29.7124 252.527C25.3393 254.664 22.6247 259.01 22.6247 263.874C22.6247 270.712 28.4122 276.5 35.2507 276.5C42.2108 276.5 47.8747 270.836 47.8747 263.875C47.8747 262.08 46.4195 260.625 44.6247 260.625C42.8299 260.625 41.3747 262.08 41.3747 263.875C41.3747 267.253 38.6278 270 35.2507 270C31.978 270 29.1247 267.147 29.1247 263.874C29.1247 261.516 30.4451 259.403 32.5655 258.367L32.5657 258.367C36.1559 256.613 38.4997 252.723 38.4997 248.44V247V246.5H38.9997H40.8747C42.6695 246.5 44.1247 245.045 44.1247 243.25V242.75H44.6247H46.4997C47.8287 242.75 49.0237 241.941 49.5173 240.707L49.9815 240.893L49.5173 240.707L53.2673 231.332L53.2674 231.332C53.5775 230.557 53.5775 229.693 53.2674 228.918L53.2673 228.918L49.5173 219.543L49.5173 219.543C49.0237 218.309 47.8287 217.5 46.4997 217.5H23.9997C22.6707 217.5 21.4757 218.309 20.9822 219.543L20.518 219.357L20.9822 219.543L17.2322 228.918ZM43.9997 238.125H43.6393L43.5253 237.783L38.5254 222.783L38.306 222.125H38.9997H42.9529H43.3133L43.4273 222.467L48.4272 237.467L48.6466 238.125H47.9529H43.9997ZM35.7731 238.125H35.4127L35.2988 237.783L30.2988 222.783L30.0795 222.125H30.7732H34.7264H35.0868L35.2007 222.467L40.2006 237.467L40.42 238.125H39.7263H35.7731ZM27.5465 238.125H27.1862L27.0722 237.783L22.0723 222.783L21.8529 222.125H22.5466H26.4998H26.8602L26.9742 222.467L31.9741 237.467L32.1934 238.125H31.4997H27.5465Z" fill="#C4C4C4" stroke="#9B989A"/>
<path d="M35.3066 269.393L36.974 268.268C37.432 267.96 38.0535 268.081 38.3622 268.539L42.8837 275.245C43.1924 275.703 43.0715 276.324 42.6136 276.633L41.7753 277.198C41.3174 277.507 40.6959 277.386 40.3872 276.928L35.3066 269.393Z" fill="black"/>
<defs>
<linearGradient id="paint0_linear_446_12992" x1="17" y1="-32" x2="17" y2="105" gradientUnits="userSpaceOnUse">
<stop stop-color="#9B9794"/>
<stop offset="1" stop-color="#939393"/>
</linearGradient>
<linearGradient id="paint1_linear_446_12992" x1="55" y1="-32" x2="55" y2="105" gradientUnits="userSpaceOnUse">
<stop stop-color="#9B9794"/>
<stop offset="1" stop-color="#939393"/>
</linearGradient>
<linearGradient id="paint2_linear_446_12992" x1="34.6182" y1="194" x2="34.6182" y2="210" gradientUnits="userSpaceOnUse">
<stop stop-color="#9F9F9F"/>
<stop offset="1" stop-color="#C1C1C1"/>
</linearGradient>
</defs>
</svg>
