<svg width="776" height="292" viewBox="0 0 776 292" fill="none" xmlns="http://www.w3.org/2000/svg">
<path d="M577.238 220.496H640.812V249.695H546.184V111.707H639.836V140.906H577.238V165.711H633.195V194.91H577.238V220.496ZM736.223 249.695L707.805 202.527H692.863V249.695H661.809V111.707H721.672C735.409 111.707 746.835 116.102 755.949 124.891C765.064 133.68 769.621 144.682 769.621 157.898C769.621 167.469 767.049 175.9 761.906 183.191C756.763 190.418 749.862 195.724 741.203 199.109L773.43 249.695H736.223ZM692.863 140.906V175.477H720.988C725.741 175.477 729.712 173.849 732.902 170.594C736.158 167.273 737.785 163.172 737.785 158.289C737.785 153.341 736.19 149.207 733 145.887C729.81 142.566 725.806 140.906 720.988 140.906H692.863Z" fill="black"/>
<path d="M288.776 90.791L316.134 66.8087L514.244 185.418L486.887 209.401L288.776 90.791Z" fill="#FF9394"/>
<path d="M353.955 91.1417C361.642 84.9097 369.981 80.4122 378.972 77.6491C387.962 74.886 396.787 73.9338 405.445 74.7926C414.113 75.5598 422.523 78.1284 430.676 82.4983C438.828 86.8683 445.959 92.8209 452.068 100.356C458.177 107.891 462.526 116.099 465.116 124.979C467.705 133.859 468.5 142.644 467.499 151.334C466.548 159.982 463.792 168.419 459.229 176.644C454.667 184.869 448.542 192.098 440.855 198.33L398.602 232.585L311.702 125.397L353.955 91.1417ZM421.859 176.14C430.608 169.047 435.492 160.184 436.511 149.552C437.53 138.921 434.472 129.205 427.338 120.405C420.204 111.606 411.351 106.63 400.78 105.479C390.167 104.277 380.486 107.222 371.737 114.315L354.214 128.522L404.336 190.346L421.859 176.14Z" fill="black"/>
<path d="M365.084 136.477L387.654 109.628L494.818 173.788L472.247 200.636L365.084 136.477Z" fill="#FF9394"/>
<path d="M68.3594 252.441C60.2865 252.441 52.6693 251.009 45.5078 248.145C38.4115 245.28 32.3242 241.374 27.2461 236.426C22.168 231.478 18.1641 225.553 15.2344 218.652C12.3047 211.686 10.8398 204.264 10.8398 196.387V112.012H41.7969V195.996C41.7969 203.613 44.3034 209.961 49.3164 215.039C54.3294 220.052 60.6771 222.559 68.3594 222.559C75.9766 222.559 82.3242 220.052 87.4023 215.039C92.4805 209.961 95.0195 203.613 95.0195 195.996V112.012H125.977V196.387C125.977 206.868 123.438 216.406 118.359 225C113.346 233.594 106.445 240.332 97.6562 245.215C88.8672 250.033 79.1016 252.441 68.3594 252.441ZM238.281 112.012H269.336V250H237.891L180.762 165.625V250H149.707V112.012H180.957L238.281 196.387V112.012Z" fill="black"/>
<path d="M297.5 96.0003L324.5 112.001L339 80.5004L314.5 65.5007C314.5 47.5009 302.667 45.6672 298 46.0005C280.4 46.8005 278 60.0005 281 67.0003C272 67.0003 268.5 76.5003 268 80.5003C267.6 101.7 287.5 99.667 297.5 96.0003Z" fill="#FF9394"/>
<path d="M503.114 179.337L476.09 163.11L459.59 193.11L483.09 207.61C481.672 225.554 493.997 229.106 498.675 229.142C516.283 229.731 519.716 216.762 517.277 209.547C526.249 210.256 530.487 201.062 531.301 197.114C533.37 176.011 513.372 176.47 503.114 179.337Z" fill="#FF9394"/>
</svg>
