<svg width="24" height="25" viewBox="0 0 24 25" fill="none" xmlns="http://www.w3.org/2000/svg">
<g id="paws 1">
<g id="Layer 15">
<path id="Vector" d="M15.0375 13.0665C14.217 12.2895 13.13 11.8564 12 11.8564C10.87 11.8564 9.78297 12.2895 8.9625 13.0665L5.29875 16.5315C3.19875 18.4402 4.71375 22.089 7.54875 21.9465C9.08625 21.9052 10.335 21.1177 11.9962 21.1477C13.7175 21.1177 14.9962 21.8115 16.5412 21.9465C19.3275 22.0102 20.7675 18.4027 18.6975 16.5315L15.0375 13.0665Z" fill="white"/>
<path id="Vector_2" d="M21.345 7.97399C19.9125 7.69274 18.8175 9.28649 18.5325 10.659C17.6775 14.9077 21.795 15.7177 22.7588 11.5965C23.1525 9.83024 22.53 8.23649 21.345 7.97399Z" fill="white"/>
<path id="Vector_3" d="M15.2737 10.2685C16.6987 10.2685 17.8575 8.64852 17.8575 6.66102C17.715 1.87602 12.8325 1.87602 12.6937 6.66102C12.6937 8.64852 13.8525 10.2685 15.2737 10.2685Z" fill="white"/>
<path id="Vector_4" d="M5.4675 10.659C5.18625 9.28649 4.0875 7.69274 2.655 7.97399C-8.34465e-07 8.64524 1.125 14.304 3.72 14.319C5.19 14.2702 5.86875 12.564 5.4675 10.659Z" fill="white"/>
<path id="Vector_5" d="M8.72625 10.2685C10.1475 10.2685 11.3063 8.64852 11.3063 6.66102C11.1675 1.87602 6.285 1.87602 6.1425 6.66102C6.1425 8.64852 7.30125 10.2685 8.72625 10.2685Z" fill="white"/>
</g>
</g>
</svg>
