<svg width="244" height="283" viewBox="0 0 244 283" fill="none" xmlns="http://www.w3.org/2000/svg">
<g id="Star 17" filter="url(#filter0_d_446_8406)">
<path d="M110.875 81.847C117.836 79.9819 125.164 79.9819 132.125 81.847C139.086 83.712 145.433 87.3765 150.528 92.472C155.624 97.5674 159.288 103.914 161.153 110.875C163.018 117.836 163.018 125.164 161.153 132.125C159.288 139.086 155.624 145.433 150.528 150.528C145.433 155.624 139.086 159.288 132.125 161.153C125.164 163.018 117.836 163.018 110.875 161.153C103.914 159.288 97.5674 155.624 92.472 150.528C87.3765 145.433 83.712 139.086 81.847 132.125C79.9819 125.164 79.9819 117.836 81.847 110.875C83.712 103.914 87.3765 97.5674 92.472 92.472C97.5674 87.3765 103.914 83.712 110.875 81.847Z" fill="#999999"/>
<path d="M111.393 83.7788C118.014 82.0046 124.986 82.0046 131.607 83.7788C138.229 85.553 144.267 89.0389 149.114 93.8862C153.961 98.7334 157.447 104.771 159.221 111.393C160.995 118.014 160.995 124.986 159.221 131.607C157.447 138.229 153.961 144.267 149.114 149.114C144.267 153.961 138.229 157.447 131.607 159.221C124.986 160.995 118.014 160.995 111.393 159.221C104.771 157.447 98.7334 153.961 93.8862 149.114C89.0389 144.267 85.553 138.229 83.7788 131.607C82.0046 124.986 82.0046 118.014 83.7788 111.393C85.553 104.771 89.0389 98.7334 93.8862 93.8862C98.7334 89.0389 104.771 85.553 111.393 83.7788Z" stroke="#FFFBFA" stroke-width="4"/>
</g>
<defs>
<filter id="filter0_d_446_8406" x="0.44812" y="0.448242" width="282.104" height="282.104" filterUnits="userSpaceOnUse" color-interpolation-filters="sRGB">
<feFlood flood-opacity="0" result="BackgroundImageFix"/>
<feColorMatrix in="SourceAlpha" type="matrix" values="0 0 0 0 0 0 0 0 0 0 0 0 0 0 0 0 0 0 127 0" result="hardAlpha"/>
<feOffset dx="20" dy="20"/>
<feGaussianBlur stdDeviation="50"/>
<feComposite in2="hardAlpha" operator="out"/>
<feColorMatrix type="matrix" values="0 0 0 0 0.756863 0 0 0 0 0.368627 0 0 0 0 0.282353 0 0 0 0.4 0"/>
<feBlend mode="normal" in2="BackgroundImageFix" result="effect1_dropShadow_446_8406"/>
<feBlend mode="normal" in="SourceGraphic" in2="effect1_dropShadow_446_8406" result="shape"/>
</filter>
</defs>
</svg>
