<svg width="327" height="333" viewBox="0 0 327 333" fill="none" xmlns="http://www.w3.org/2000/svg">
<g id="Star 16" filter="url(#filter0_d_446_8410)">
<path d="M139.302 82.4866C141.273 79.4419 145.727 79.4419 147.698 82.4866L156.543 96.155C157.829 98.142 160.332 98.9553 162.54 98.1035L177.73 92.2447C181.114 90.9396 184.718 93.5581 184.522 97.1794L183.644 113.437C183.516 115.8 185.063 117.929 187.35 118.538L203.083 122.727C206.588 123.66 207.964 127.896 205.678 130.711L195.411 143.347C193.919 145.184 193.919 147.816 195.411 149.653L205.678 162.289C207.964 165.104 206.588 169.34 203.083 170.273L187.35 174.462C185.063 175.071 183.516 177.2 183.644 179.563L184.522 195.821C184.718 199.442 181.114 202.06 177.73 200.755L162.54 194.896C160.332 194.045 157.829 194.858 156.543 196.845L147.698 210.513C145.727 213.558 141.273 213.558 139.302 210.513L130.457 196.845C129.171 194.858 126.668 194.045 124.46 194.896L109.27 200.755C105.886 202.06 102.282 199.442 102.478 195.821L103.356 179.563C103.484 177.2 101.937 175.071 99.6496 174.462L83.9168 170.273C80.4123 169.34 79.0357 165.104 81.3225 162.289L91.5885 149.653C93.081 147.816 93.081 145.184 91.5885 143.347L81.3225 130.711C79.0357 127.896 80.4123 123.66 83.9168 122.727L99.6496 118.538C101.937 117.929 103.484 115.8 103.356 113.437L102.478 97.1794C102.282 93.5581 105.886 90.9396 109.27 92.2447L124.46 98.1035C126.668 98.9553 129.171 98.142 130.457 96.155L139.302 82.4866Z" fill="#999999"/>
<path d="M141.401 83.8448C142.386 82.3225 144.614 82.3225 145.599 83.8448L154.444 97.5132C156.373 100.494 160.127 101.714 163.44 100.436L178.63 94.5772C180.322 93.9247 182.124 95.2339 182.026 97.0446L181.148 113.302C180.956 116.847 183.277 120.04 186.707 120.954L202.44 125.142C204.192 125.609 204.881 127.727 203.737 129.135L193.471 141.771C191.232 144.526 191.232 148.474 193.471 151.229L203.737 163.865C204.881 165.273 204.192 167.391 202.44 167.858L186.707 172.046C183.277 172.96 180.956 176.153 181.148 179.698L182.026 195.955C182.124 197.766 180.322 199.075 178.63 198.423L163.44 192.564C160.127 191.286 156.373 192.506 154.444 195.487L145.599 209.155C144.614 210.678 142.386 210.678 141.401 209.155L132.556 195.487C130.627 192.506 126.873 191.286 123.56 192.564L108.37 198.423C106.678 199.075 104.876 197.766 104.974 195.955L105.852 179.698C106.044 176.153 103.723 172.96 100.293 172.046L84.56 167.858C82.8077 167.391 82.1194 165.273 83.2628 163.865L93.5289 151.229C95.7675 148.474 95.7675 144.526 93.5289 141.771L83.2628 129.135C82.1194 127.727 82.8077 125.609 84.56 125.142L100.293 120.954C103.723 120.04 106.044 116.847 105.852 113.302L104.974 97.0446C104.876 95.2339 106.678 93.9247 108.37 94.5772L123.56 100.436C126.873 101.714 130.627 100.494 132.556 97.5132L141.401 83.8448Z" stroke="#FFFBFA" stroke-width="5"/>
</g>
<defs>
<filter id="filter0_d_446_8410" x="0.19989" y="0.203125" width="326.6" height="332.594" filterUnits="userSpaceOnUse" color-interpolation-filters="sRGB">
<feFlood flood-opacity="0" result="BackgroundImageFix"/>
<feColorMatrix in="SourceAlpha" type="matrix" values="0 0 0 0 0 0 0 0 0 0 0 0 0 0 0 0 0 0 127 0" result="hardAlpha"/>
<feOffset dx="20" dy="20"/>
<feGaussianBlur stdDeviation="50"/>
<feComposite in2="hardAlpha" operator="out"/>
<feColorMatrix type="matrix" values="0 0 0 0 0.758333 0 0 0 0 0.367964 0 0 0 0 0.281215 0 0 0 0.4 0"/>
<feBlend mode="normal" in2="BackgroundImageFix" result="effect1_dropShadow_446_8410"/>
<feBlend mode="normal" in="SourceGraphic" in2="effect1_dropShadow_446_8410" result="shape"/>
</filter>
</defs>
</svg>
