<svg width="189" height="100" viewBox="0 0 189 100" fill="none" xmlns="http://www.w3.org/2000/svg">
<rect width="189" height="100" rx="10" fill="white"/>
<path d="M77.3937 47.8039C78.4005 47.8039 79.2166 46.9874 79.2166 45.9804C79.2166 44.9733 78.4005 44.157 77.3937 44.157C76.3869 44.157 75.5708 44.9733 75.5708 45.9804C75.5708 46.9874 76.3869 47.8039 77.3937 47.8039ZM137.555 54.0338C137.277 53.8388 137.063 53.8065 136.886 54.1852C133.824 60.8164 128.664 57.5073 129.177 57.7985C130.321 57.275 133.331 54.8611 132.876 51.528C132.6 49.491 130.852 48.5875 128.996 48.911C125.757 49.4757 124.565 52.9697 125.172 56.0629C125.278 56.5941 125.468 57.0323 125.657 57.4614C121.996 60.4382 120.543 54.7967 120.378 54.1225C120.371 54.0864 123.204 51.7251 123.992 46.0981C124.818 40.2008 122.937 39.127 121.013 39.1605C117.453 39.2225 116.491 46.6603 117.784 52.8592C117.675 52.8874 117.172 53.1664 116.362 53.1976C115.78 51.365 113.291 49.7585 112.64 50.3776C111.01 51.9261 113.035 54.9535 114.46 55.191C113.604 60.464 108.25 59.1581 109.247 52.5518C110.99 49.3141 112.316 44.4998 112.08 41.5935C111.996 40.5645 111.235 39.1859 109.515 39.2543C106.205 39.3852 105.846 46.8251 106.233 52.1055C106.214 51.9754 106.03 52.747 104.674 53.1306C104.353 51.3502 101.486 49.563 100.812 50.4222C99.5482 52.0304 101.738 54.8977 102.775 55.0977C101.918 60.3705 96.5645 59.0646 97.5612 52.4583C99.3047 49.2208 100.631 44.4065 100.394 41.5002C100.31 40.471 99.5496 39.0924 97.8289 39.1606C94.5197 39.2917 94.1599 46.7316 94.5479 52.012C94.5284 51.8799 94.34 52.6769 92.9285 53.0542C92.8813 50.7442 90.004 49.685 89.3128 50.4221C88.0809 51.7359 89.5949 54.4316 90.9955 55.0977C90.1394 60.3705 84.7855 59.0646 85.7821 52.4583C87.5257 49.2208 88.8517 44.4065 88.6149 41.5002C88.5313 40.471 87.7705 39.0924 86.0498 39.1606C82.7408 39.2917 82.4745 47.1056 82.8624 52.3858C81.7724 57.0558 78.1172 62.8877 78.5921 51.2052C78.639 50.3856 78.6902 50.0745 78.2816 49.7676C77.9754 49.5292 77.2793 49.6439 76.8987 49.6534C76.4362 49.6719 76.3202 49.9425 76.218 50.3516C75.9799 51.4079 75.9371 52.4319 75.9031 53.829C75.8807 54.4826 75.8283 54.7876 75.5766 55.6787C75.3253 56.5697 73.8912 58.1983 73.106 57.926C72.0167 57.5515 72.3741 54.4764 72.5782 52.3637C72.7483 50.694 72.2037 49.9443 70.8082 49.6716C69.9913 49.5013 69.4949 49.5275 68.6441 49.2593C67.8395 49.0057 67.6576 47.4838 65.9416 47.991C65.003 48.2686 65.6064 50.2573 65.3808 51.7313C64.2717 58.9818 61.9642 59.1809 60.8936 55.6588C65.7151 43.8502 62.2884 39.1948 60.2825 39.1948C58.1933 39.1948 55.8051 40.6339 56.8164 49.8415C56.3247 49.6981 56.1735 49.6207 55.6352 49.6207C52.5909 49.6207 50.5168 52.0817 50.5168 55.1176C50.5168 58.1535 52.5911 60.6147 55.6354 60.6147C57.4325 60.6147 58.6943 59.7974 59.6499 58.533C60.2734 59.4259 61.0326 60.6284 62.421 60.5743C66.5594 60.4131 67.7629 51.9242 67.905 51.4507C68.3474 51.5189 68.7659 51.6479 69.1745 51.7161C69.8552 51.8184 69.9047 52.0878 69.8892 52.7724C69.7088 58.5459 70.7742 60.5674 73.1909 60.5674C74.5374 60.5674 75.7375 59.2445 76.5642 58.2985C77.1817 59.573 78.1656 60.5284 79.4857 60.5672C82.6842 60.6468 83.9089 55.5487 83.7972 56.2196C83.7096 56.746 84.8349 60.5385 88.1278 60.5523C92.2068 60.5695 92.965 56.0839 93.0553 55.3326C93.0667 55.1831 93.0717 55.1985 93.0553 55.3326L93.0522 55.3781C94.3472 55.1372 95.0153 54.4429 95.0153 54.4429C95.0153 54.4429 96.0551 60.622 99.9068 60.5525C103.906 60.48 104.661 56.4253 104.76 55.6346C104.773 55.447 104.78 55.469 104.76 55.6346C104.759 55.6423 104.759 55.6501 104.758 55.6578C106.296 55.0982 106.701 54.5366 106.701 54.5366C106.701 54.5366 107.527 60.5928 111.592 60.6458C115.215 60.6932 116.557 56.9836 116.565 55.431C117.176 55.4375 118.306 55.0685 118.28 55.0475C118.28 55.0475 119.607 60.3427 123.312 60.6147C125.052 60.7423 126.357 59.6357 127.101 59.1309C128.849 60.5468 134.671 62.3553 138.347 56.1229C138.866 55.2284 137.75 54.1718 137.555 54.0338ZM55.4885 58.5588C53.7123 58.5588 52.5734 56.9165 52.5734 55.1456C52.5734 53.375 53.6189 51.7326 55.395 51.7326C56.1943 51.7326 56.6389 51.8206 57.2614 52.362C57.3743 52.8068 57.6942 53.8328 57.8498 54.2988C58.0584 54.9223 58.3065 55.453 58.5567 56.0306C58.1993 57.5121 57.0277 58.5588 55.4885 58.5588ZM59.8167 52.414C59.7428 52.2963 59.7583 52.3687 59.6757 52.2575C59.3501 51.3718 58.7226 49.395 58.65 47.1496C58.5678 44.6096 58.9912 41.6323 60.2392 41.6323C61.0849 41.6323 61.9836 47.6662 59.8166 52.414H59.8167ZM84.8255 49.7675C84.6252 48.2602 84.6147 41.5407 86.2278 41.7258C87.1185 42.0866 85.6631 48.4272 84.8255 49.7675ZM96.6046 49.7675C96.4043 48.2602 96.3938 41.5407 98.0069 41.7258C98.8976 42.0866 97.4422 48.4272 96.6046 49.7675ZM108.29 49.8611C108.09 48.3536 108.079 41.6342 109.692 41.8192C110.583 42.18 109.128 48.5208 108.29 49.8611ZM121.191 41.3325C122.666 41.1796 122.605 47.62 119.645 51.6861C119.263 50.2164 118.678 41.8371 121.191 41.3323V41.3325ZM127.39 55.191C126.916 52.7982 128.14 51.2266 129.402 51.0543C129.843 50.9839 130.482 51.2696 130.61 51.8038C130.819 52.8104 130.579 54.3036 127.755 56.1981C127.759 56.2143 127.496 55.7239 127.39 55.191H127.39Z" fill="black"/>
</svg>
