<svg width="189" height="100" viewBox="0 0 189 100" fill="none" xmlns="http://www.w3.org/2000/svg">
<rect width="189" height="100" rx="10" fill="white"/>
<path d="M145.1 48.9704V47.1906H142.889V44.4238L142.815 44.4467L140.739 45.0818L140.698 45.0943V47.1907H137.422V46.0228C137.422 45.479 137.543 45.0629 137.783 44.7853C138.021 44.5111 138.361 44.3717 138.795 44.3717C139.108 44.3717 139.431 44.4452 139.756 44.5902L139.837 44.6266V42.7523L139.799 42.7382C139.496 42.6291 139.083 42.5742 138.572 42.5742C137.927 42.5742 137.341 42.7145 136.83 42.9925C136.319 43.271 135.917 43.6684 135.636 44.1738C135.355 44.6785 135.212 45.2615 135.212 45.9066V47.1906H133.674V48.9704H135.212V56.4682H137.422V48.9704H140.698V53.7351C140.698 55.6975 141.624 56.6919 143.449 56.6919C143.749 56.6919 144.065 56.6568 144.387 56.5879C144.715 56.5173 144.939 56.4467 145.071 56.3713L145.1 56.3541V54.5579L145.01 54.6173C144.89 54.6972 144.741 54.7625 144.565 54.811C144.39 54.8605 144.243 54.8852 144.129 54.8852C143.701 54.8852 143.385 54.77 143.189 54.5426C142.99 54.3131 142.89 53.9118 142.89 53.3505V48.9704H145.1ZM128.74 54.8855C127.938 54.8855 127.306 54.6196 126.86 54.0959C126.412 53.5695 126.185 52.819 126.185 51.8655C126.185 50.8817 126.412 50.1118 126.861 49.5761C127.306 49.0439 127.933 48.7738 128.722 48.7738C129.488 48.7738 130.098 49.0318 130.535 49.5409C130.974 50.0528 131.196 50.8165 131.196 51.8118C131.196 52.8192 130.987 53.5931 130.574 54.1108C130.163 54.6245 129.547 54.8855 128.74 54.8855ZM128.838 46.9671C127.308 46.9671 126.093 47.4154 125.227 48.2995C124.361 49.1837 123.922 50.4073 123.922 51.9367C123.922 53.3893 124.351 54.5577 125.196 55.4089C126.041 56.2604 127.191 56.6917 128.614 56.6917C130.097 56.6917 131.288 56.2372 132.154 55.3408C133.02 54.4455 133.459 53.2334 133.459 51.7398C133.459 50.2645 133.047 49.0874 132.235 48.2419C131.422 47.3959 130.279 46.9671 128.838 46.9671ZM120.36 46.9671C119.32 46.9671 118.459 47.2333 117.801 47.7581C117.14 48.2861 116.804 48.9785 116.804 49.8164C116.804 50.252 116.876 50.6389 117.019 50.967C117.162 51.2962 117.384 51.5861 117.679 51.8294C117.972 52.0707 118.423 52.3235 119.022 52.5806C119.525 52.7877 119.9 52.9628 120.139 53.1009C120.372 53.2362 120.537 53.3721 120.631 53.5046C120.721 53.6342 120.767 53.8116 120.767 54.0305C120.767 54.6538 120.301 54.9571 119.34 54.9571C118.984 54.9571 118.577 54.8827 118.132 54.736C117.69 54.5916 117.273 54.3801 116.896 54.1089L116.804 54.0431V56.1701L116.837 56.1858C117.15 56.3301 117.544 56.4518 118.009 56.5475C118.472 56.6434 118.894 56.6921 119.26 56.6921C120.389 56.6921 121.298 56.4247 121.962 55.8967C122.629 55.3651 122.968 54.6563 122.968 53.7895C122.968 53.1641 122.786 52.6278 122.427 52.1953C122.07 51.7663 121.451 51.3725 120.588 51.0244C119.9 50.7483 119.459 50.5191 119.277 50.3432C119.102 50.1733 119.013 49.9329 119.013 49.6286C119.013 49.3588 119.123 49.1426 119.348 48.9676C119.576 48.7916 119.892 48.7022 120.289 48.7022C120.657 48.7022 121.033 48.7603 121.408 48.8743C121.782 48.9882 122.111 49.1408 122.385 49.3275L122.475 49.3892V47.3716L122.441 47.3567C122.188 47.2481 121.854 47.1552 121.448 47.0798C121.045 47.0049 120.679 46.9671 120.36 46.9671ZM111.045 54.8855C110.243 54.8855 109.611 54.6196 109.165 54.0959C108.717 53.5695 108.49 52.8192 108.49 51.8655C108.49 50.8817 108.717 50.1118 109.166 49.5761C109.611 49.0439 110.237 48.7738 111.027 48.7738C111.793 48.7738 112.402 49.0318 112.839 49.5409C113.278 50.0528 113.501 50.8165 113.501 51.8118C113.501 52.8192 113.292 53.5931 112.878 54.1108C112.468 54.6245 111.852 54.8855 111.045 54.8855ZM111.143 46.9671C109.613 46.9671 108.398 47.4154 107.532 48.2995C106.666 49.1837 106.227 50.4073 106.227 51.9367C106.227 53.3899 106.656 54.5577 107.501 55.4089C108.346 56.2604 109.496 56.6917 110.919 56.6917C112.402 56.6917 113.593 56.2372 114.459 55.3408C115.325 54.4455 115.764 53.2334 115.764 51.7398C115.764 50.2645 115.352 49.0874 114.54 48.2419C113.727 47.3959 112.584 46.9671 111.143 46.9671ZM102.873 48.7973V47.1906H100.691V56.468H102.873V51.7223C102.873 50.9153 103.056 50.2524 103.417 49.7516C103.774 49.2568 104.249 49.0061 104.829 49.0061C105.025 49.0061 105.246 49.0385 105.485 49.1027C105.721 49.1664 105.893 49.2356 105.994 49.3084L106.085 49.3749V47.1748L106.05 47.1596C105.847 47.0733 105.559 47.0297 105.196 47.0297C104.647 47.0297 104.156 47.2059 103.736 47.5529C103.367 47.8578 103.1 48.2759 102.896 48.7973H102.873ZM96.7828 46.9671C95.7816 46.9671 94.8886 47.1818 94.1291 47.605C93.3679 48.0292 92.7793 48.6348 92.3788 49.4049C91.98 50.1731 91.7776 51.0704 91.7776 52.0711C91.7776 52.9477 91.9739 53.7521 92.3618 54.461C92.75 55.1712 93.2994 55.7268 93.9948 56.1121C94.6893 56.4969 95.492 56.692 96.3807 56.692C97.4178 56.692 98.3033 56.4847 99.0132 56.0758L99.0419 56.0593V54.06L98.9502 54.1269C98.6286 54.3612 98.2692 54.5482 97.8825 54.6829C97.4968 54.8175 97.1451 54.8855 96.8368 54.8855C95.9805 54.8855 95.293 54.6176 94.7941 54.0893C94.294 53.5604 94.0405 52.8176 94.0405 51.883C94.0405 50.9425 94.3049 50.1807 94.826 49.6186C95.3455 49.0581 96.0342 48.7738 96.8728 48.7738C97.5901 48.7738 98.2891 49.0167 98.9503 49.4964L99.0419 49.5629V47.4562L99.0123 47.4396C98.7635 47.3003 98.4241 47.1853 98.0027 47.098C97.5831 47.011 97.1727 46.9671 96.7828 46.9671ZM90.2746 47.1907H88.0923V56.468H90.2746V47.1907ZM89.2058 43.2385C88.8466 43.2385 88.5333 43.3608 88.2759 43.6031C88.0175 43.8461 87.8864 44.152 87.8864 44.5131C87.8864 44.8684 88.0159 45.1688 88.2719 45.4053C88.5263 45.6411 88.8405 45.7607 89.2059 45.7607C89.5711 45.7607 89.8865 45.6411 90.1439 45.4057C90.4029 45.1688 90.5343 44.8685 90.5343 44.5131C90.5343 44.1647 90.4065 43.8619 90.1546 43.6129C89.9029 43.3644 89.5835 43.2385 89.2058 43.2385ZM83.7608 46.5062V56.468H85.9879V43.5225H82.9055L78.9874 53.1381L75.1853 43.5225H71.9773V56.4679H74.0702V46.5053H74.1421L78.1571 56.468H79.7366L83.6889 46.5062H83.7608Z" fill="#706D6E"/>
<path d="M54.1663 49.4635H43.9001V39.1973H54.1663V49.4635Z" fill="#F1511B"/>
<path d="M65.5018 49.4635H55.2358V39.1973H65.5018V49.4635Z" fill="#80CC28"/>
<path d="M54.166 60.8032H43.9001V50.5371H54.166V60.8032Z" fill="#00ADEF"/>
<path d="M65.5018 60.8032H55.2358V50.5371H65.5018V60.8032Z" fill="#FBBC09"/>
</svg>
