<svg width="189" height="100" viewBox="0 0 189 100" fill="none" xmlns="http://www.w3.org/2000/svg">
<rect width="189" height="100" rx="10" fill="white"/>
<path d="M61.3375 35.6406H62.1201C64.8369 35.6997 67.5093 36.7923 69.4288 38.7265C68.7201 39.45 67.9966 40.144 67.3026 40.8675C66.2248 39.893 64.9254 39.14 63.508 38.8742C61.4114 38.4312 59.1523 38.8299 57.3952 40.0259C55.4758 41.2809 54.1765 43.4071 53.8959 45.6809C53.5858 47.9252 54.2207 50.2876 55.6825 52.0299C57.0852 53.7279 59.2261 54.791 61.4409 54.8648C63.508 54.983 65.6637 54.3481 67.1697 52.9011C68.3509 51.8823 68.8973 50.3319 69.0744 48.8259C66.6234 48.8259 64.1724 48.8407 61.7214 48.8259V45.7843H72.0422C72.5738 49.0474 71.806 52.7239 69.3254 55.0568C67.6718 56.7105 65.3832 57.685 63.0503 57.8769C60.7912 58.0984 58.4583 57.6702 56.4503 56.5776C54.0436 55.293 52.1241 53.1225 51.1791 50.5682C50.2932 48.2205 50.2785 45.5628 51.1053 43.2004C51.8583 41.0447 53.3053 39.14 55.1657 37.8111C56.9523 36.497 59.1228 35.7735 61.3375 35.6406Z" fill="#3780FF"/>
<path d="M120.546 36.4082H123.705V57.4928C122.657 57.4928 121.594 57.5075 120.546 57.478C120.56 50.4646 120.546 43.4364 120.546 36.4082Z" fill="#38B137"/>
<path d="M79.0704 43.7169C81.0194 43.3478 83.1308 43.7612 84.7402 44.9277C86.202 45.9612 87.2208 47.5854 87.5308 49.3572C87.9295 51.4095 87.4275 53.6538 86.0986 55.278C84.6664 57.0941 82.3187 58.0686 80.0301 57.921C77.9335 57.8028 75.8959 56.7545 74.6556 55.0418C73.253 53.1518 72.9134 50.5532 73.6811 48.3384C74.4489 45.9612 76.6194 44.1451 79.0704 43.7169ZM79.5134 46.5223C78.7161 46.729 77.9778 47.1867 77.4462 47.8364C76.014 49.5491 76.1026 52.3397 77.6825 53.9344C78.5832 54.8498 79.9416 55.278 81.1966 55.027C82.363 54.8203 83.3818 54.0377 83.9429 53.0042C84.9174 51.2471 84.6369 48.8256 83.1456 47.4525C82.1859 46.5666 80.7832 46.1975 79.5134 46.5223Z" fill="#FA3913"/>
<path d="M94.7213 43.718C96.9508 43.2898 99.387 43.9099 101.055 45.475C103.772 47.9113 104.068 52.4737 101.749 55.2791C100.347 57.0509 98.073 58.0254 95.8287 57.922C93.6877 57.8629 91.5763 56.7999 90.3065 55.0428C88.8743 53.1086 88.5642 50.4509 89.3763 48.1918C90.1884 45.8885 92.3146 44.1314 94.7213 43.718ZM95.1642 46.5234C94.3669 46.7301 93.6287 47.1878 93.0971 47.8227C91.6797 49.5059 91.7387 52.2522 93.2595 53.8616C94.1602 54.8213 95.5629 55.2938 96.8622 55.0281C98.0139 54.8066 99.0474 54.0388 99.6085 53.0052C100.568 51.2334 100.288 48.812 98.7817 47.4388C97.8219 46.5529 96.4193 46.1985 95.1642 46.5234Z" fill="#FCBD06"/>
<path d="M107.995 44.5729C109.693 43.5098 111.952 43.2145 113.783 44.1299C114.359 44.3809 114.831 44.8091 115.289 45.2373C115.304 44.8387 115.289 44.4252 115.304 44.0118C116.293 44.0266 117.282 44.0118 118.286 44.0266V57.0494C118.272 59.0131 117.77 61.095 116.352 62.5272C114.802 64.1071 112.425 64.5943 110.284 64.2695C107.995 63.9299 106.002 62.2614 105.116 60.15C106.002 59.7219 106.932 59.3823 107.848 58.9836C108.364 60.1943 109.413 61.2279 110.727 61.4641C112.041 61.7004 113.562 61.3755 114.418 60.2829C115.333 59.1608 115.333 57.6252 115.289 56.2521C114.61 56.9165 113.827 57.5071 112.882 57.7286C110.83 58.3044 108.571 57.5957 106.991 56.2078C105.397 54.8198 104.452 52.6789 104.54 50.5527C104.584 48.146 105.943 45.8279 107.995 44.5729ZM111.052 46.4628C110.151 46.6105 109.309 47.1125 108.733 47.8064C107.346 49.4601 107.346 52.1031 108.748 53.7272C109.546 54.687 110.83 55.2185 112.07 55.0856C113.237 54.9675 114.315 54.2292 114.89 53.2105C115.865 51.4829 115.703 49.1353 114.388 47.6293C113.576 46.6991 112.277 46.2413 111.052 46.4628Z" fill="#3780FF"/>
<path d="M127.5 45.3273C129.272 43.6736 132.003 43.1125 134.277 43.9837C136.433 44.7958 137.806 46.8481 138.5 48.9595C135.296 50.2884 132.107 51.6025 128.903 52.9313C129.346 53.773 130.025 54.5407 130.94 54.8508C132.225 55.3085 133.76 55.1461 134.838 54.2897C135.266 53.9649 135.606 53.5367 135.931 53.1233C136.743 53.6696 137.555 54.2011 138.367 54.7474C137.215 56.475 135.281 57.6857 133.199 57.8777C130.896 58.1582 128.445 57.2723 126.954 55.4709C124.503 52.636 124.739 47.8817 127.5 45.3273ZM129.08 48.0589C128.578 48.7823 128.371 49.6683 128.386 50.5394C130.527 49.6535 132.668 48.7676 134.809 47.8669C134.454 47.0401 133.598 46.538 132.727 46.4052C131.324 46.1542 129.862 46.9072 129.08 48.0589Z" fill="#FA3913"/>
</svg>
