<svg width="189" height="100" viewBox="0 0 189 100" fill="none" xmlns="http://www.w3.org/2000/svg">
<rect width="189" height="100" rx="10" fill="white"/>
<path fill-rule="evenodd" clip-rule="evenodd" d="M75.4981 40.7627C76.708 41.0886 77.659 42.0395 77.9805 43.245C78.5654 45.4327 78.5654 50.0003 78.5654 50.0003C78.5654 50.0003 78.5654 54.5676 77.9805 56.7553C77.6545 57.9653 76.7036 58.9163 75.4981 59.2377C73.3104 59.8227 64.5327 59.8227 64.5327 59.8227C64.5327 59.8227 55.7595 59.8227 53.5673 59.2377C52.3574 58.9118 51.4064 57.9609 51.0849 56.7553C50.5 54.5676 50.5 50.0001 50.5 50.0001C50.5 50.0001 50.5 45.4327 51.0849 43.245C51.4109 42.0351 52.3619 41.0841 53.5673 40.7627C55.7595 40.1777 64.5327 40.1777 64.5327 40.1777C64.5327 40.1777 73.3104 40.1777 75.4981 40.7627ZM69.0193 50.0002L61.7284 54.2105V45.79L69.0193 50.0002Z" fill="#FF0000"/>
<path fill-rule="evenodd" clip-rule="evenodd" d="M91.2359 58.0482C90.6822 57.6733 90.2848 57.0928 90.0527 56.3026C89.8205 55.5123 89.6999 54.4631 89.6999 53.1504V51.3646C89.6999 50.0386 89.8338 48.976 90.1017 48.1722C90.3696 47.3686 90.7894 46.7838 91.3563 46.4176C91.9234 46.0515 92.669 45.8641 93.5932 45.8641C94.504 45.8641 95.2318 46.0515 95.7809 46.4266C96.33 46.8016 96.7319 47.3865 96.9864 48.1812C97.2409 48.976 97.366 50.0386 97.366 51.3601V53.146C97.366 54.4586 97.2409 55.5123 96.9953 56.307C96.7498 57.1017 96.348 57.6866 95.7899 58.0527C95.2362 58.4188 94.4816 58.6065 93.5306 58.6065C92.5573 58.6108 91.7894 58.4233 91.2359 58.0482ZM94.3477 56.1195C94.4995 55.7177 94.5799 55.0613 94.5799 54.1551V50.3199C94.5799 49.4358 94.504 48.7929 94.3477 48.3822C94.196 47.9758 93.9236 47.7705 93.5351 47.7705C93.1602 47.7705 92.8966 47.9758 92.7404 48.3822C92.5886 48.7884 92.5083 49.4358 92.5083 50.3199V54.1551C92.5083 55.0658 92.5797 55.7222 92.727 56.1195C92.8744 56.5214 93.1423 56.7222 93.5307 56.7222C93.9236 56.7222 94.1915 56.5214 94.3477 56.1195ZM133.861 53.1817V53.8024C133.861 54.5926 133.883 55.1819 133.932 55.5792C133.977 55.9722 134.075 56.2624 134.222 56.4411C134.37 56.6196 134.597 56.7134 134.905 56.7134C135.321 56.7134 135.606 56.5526 135.758 56.2311C135.91 55.9097 135.995 55.3739 136.008 54.6238L138.397 54.7623C138.41 54.8694 138.415 55.0167 138.415 55.2042C138.415 56.3428 138.102 57.191 137.481 57.7536C136.861 58.3161 135.981 58.5974 134.843 58.5974C133.477 58.5974 132.521 58.1688 131.972 57.3116C131.423 56.4543 131.151 55.1328 131.151 53.338V51.1905C131.151 49.3421 131.436 47.9981 132.003 47.1455C132.57 46.2972 133.544 45.8729 134.923 45.8729C135.874 45.8729 136.602 46.0471 137.111 46.3953C137.62 46.7435 137.977 47.2837 138.187 48.0205C138.392 48.7571 138.5 49.7752 138.5 51.0699V53.1773H133.861V53.1817ZM134.213 48.0026C134.075 48.1768 133.981 48.4625 133.932 48.8554C133.883 49.2483 133.861 49.8511 133.861 50.6502V51.5343H135.888V50.6502C135.888 49.8599 135.861 49.2617 135.807 48.8554C135.754 48.4491 135.655 48.1589 135.517 47.9937C135.379 47.8285 135.16 47.7437 134.865 47.7437C134.571 47.7392 134.352 47.8285 134.213 48.0026ZM84.494 52.9496L81.342 41.569H84.0922L85.195 46.7258C85.4763 47.9982 85.6817 49.0787 85.8156 49.9761H85.8959C85.9897 49.3331 86.1951 48.2571 86.5166 46.7435L87.6595 41.5645H90.4098L87.222 52.9496V58.4099H84.494V52.9496ZM106.309 46.1052V58.4054H104.143L103.902 56.9008H103.844C103.255 58.0393 102.371 58.6064 101.197 58.6064C100.38 58.6064 99.7768 58.3385 99.3885 57.8027C99 57.2669 98.808 56.4321 98.808 55.2936V46.1052H101.576V55.1373C101.576 55.6864 101.634 56.0794 101.755 56.3115C101.875 56.5436 102.076 56.6642 102.357 56.6642C102.599 56.6642 102.831 56.5927 103.049 56.4455C103.268 56.2981 103.433 56.1105 103.541 55.8829V46.1051L106.309 46.1052ZM120.516 46.1052V58.4054H118.35L118.109 56.9008H118.051C117.462 58.0393 116.578 58.6064 115.403 58.6064C114.586 58.6064 113.984 58.3385 113.595 57.8027C113.207 57.2669 113.015 56.4321 113.015 55.2936V46.1052H115.783V55.1373C115.783 55.6864 115.841 56.0794 115.962 56.3115C116.082 56.5436 116.283 56.6642 116.564 56.6642C116.805 56.6642 117.038 56.5927 117.256 56.4455C117.475 56.2981 117.64 56.1105 117.747 55.8829V46.1051L120.516 46.1052Z" fill="black"/>
<path fill-rule="evenodd" clip-rule="evenodd" d="M113.836 43.7978H111.085V58.4063H108.375V43.7978H105.625V41.5699H113.831V43.7978H113.836ZM129.681 48.0749C129.511 47.2981 129.243 46.7355 128.868 46.3873C128.493 46.039 127.98 45.8649 127.324 45.8649C126.815 45.8649 126.341 46.0077 125.899 46.298C125.457 46.5837 125.118 46.9633 124.877 47.432H124.855V40.9492H122.185V58.4108H124.471L124.752 57.2455H124.81C125.024 57.6607 125.346 57.9867 125.774 58.2277C126.203 58.4688 126.676 58.5894 127.199 58.5894C128.136 58.5894 128.824 58.1563 129.266 57.2946C129.708 56.433 129.927 55.0846 129.927 53.2496V51.3029C129.931 49.9278 129.846 48.8518 129.681 48.075V48.0749ZM127.141 53.0933C127.141 53.9907 127.105 54.6916 127.029 55.2007C126.957 55.7097 126.832 56.0713 126.658 56.2856C126.484 56.4999 126.252 56.607 125.957 56.607C125.73 56.607 125.52 56.5535 125.323 56.4463C125.131 56.3392 124.971 56.1784 124.85 55.9641V48.9769C124.944 48.6419 125.105 48.3697 125.332 48.1554C125.56 47.941 125.806 47.8339 126.073 47.8339C126.355 47.8339 126.573 47.9454 126.725 48.1642C126.877 48.383 126.984 48.758 127.047 49.2759C127.105 49.7983 127.136 50.5395 127.136 51.5038V53.0933H127.141Z" fill="black"/>
</svg>
