<svg width="189" height="100" viewBox="0 0 189 100" fill="none" xmlns="http://www.w3.org/2000/svg">
<rect width="189" height="100" rx="10" fill="white"/>
<path d="M70.2555 48.757V56.9505C70.2555 57.0833 70.2028 57.2107 70.1089 57.3046C70.015 57.3985 69.8877 57.4513 69.7549 57.4513H67.1691C67.0364 57.4512 66.9091 57.3984 66.8152 57.3045C66.7213 57.2106 66.6686 57.0833 66.6685 56.9505V43.6233C66.6685 43.4905 66.7213 43.3631 66.8151 43.2692C66.909 43.1753 67.0364 43.1226 67.1691 43.1226H69.562C69.6947 43.1226 69.8221 43.1753 69.916 43.2692C70.0098 43.3631 70.0626 43.4905 70.0626 43.6233V45.5001C70.0626 45.5001 70.918 42.8229 73.4565 42.8229C73.4565 42.8229 75.9674 42.5193 76.9883 45.3069C76.9883 45.3069 77.8437 42.8229 80.4373 42.8229C80.4373 42.8229 84.2945 42.5935 84.2945 46.5858L84.3239 48.7846V56.9781C84.3239 57.1109 84.2712 57.2383 84.1773 57.3322C84.0834 57.4261 83.956 57.4789 83.8233 57.4789H81.2373C81.1045 57.4788 80.9772 57.426 80.8834 57.3321C80.7895 57.2382 80.7367 57.1109 80.7367 56.9781L80.713 48.0394C80.7866 46.0153 79.1495 46.1626 79.1495 46.1626C77.0894 46.1994 77.2876 48.7846 77.2876 48.7846V56.9781C77.2876 57.1109 77.2349 57.2383 77.141 57.3322C77.0471 57.4261 76.9198 57.4789 76.787 57.4789H74.2012C74.0685 57.4788 73.9412 57.426 73.8473 57.3321C73.7534 57.2382 73.7007 57.1109 73.7006 56.9781V48.2416C73.7006 48.2416 73.8518 46.144 72.0122 46.144C72.0124 46.144 70.1913 45.9049 70.2555 48.757ZM136.909 48.7325V56.9258C136.909 57.0586 136.856 57.1859 136.762 57.2798C136.668 57.3737 136.541 57.4265 136.408 57.4265L133.719 57.4786C133.586 57.4786 133.459 57.4258 133.365 57.3319C133.271 57.238 133.218 57.1107 133.218 56.9779V48.2416C133.218 48.2416 133.37 46.144 131.53 46.144C131.53 46.144 129.773 46.0575 129.773 49.3463V56.9503C129.773 57.0831 129.72 57.2104 129.627 57.3043C129.533 57.3982 129.405 57.451 129.273 57.451H126.687C126.554 57.451 126.427 57.3982 126.333 57.3043C126.239 57.2104 126.186 57.0831 126.186 56.9503V43.6233C126.186 43.4905 126.239 43.3632 126.333 43.2693C126.427 43.1754 126.554 43.1226 126.687 43.1226H129.079C129.212 43.1226 129.34 43.1753 129.433 43.2692C129.527 43.3631 129.58 43.4905 129.58 43.6233V45.5001C129.58 45.5001 130.435 42.8229 132.974 42.8229C132.974 42.8229 135.693 42.4102 136.609 45.2551C136.609 45.2548 136.909 45.8417 136.909 48.7325ZM118.239 42.7677C114.932 42.7677 112.251 45.5553 112.251 50.2474C112.251 54.3784 114.321 57.727 118.239 57.727C121.936 57.727 124.226 54.3784 124.226 50.2474C124.226 45.6381 121.546 42.7677 118.239 42.7677ZM120.326 50.413C120.326 52.1794 120.105 53.1178 120.105 53.1178C119.791 54.9851 118.436 54.9878 118.236 54.9778C118.02 54.9865 116.654 54.967 116.371 53.1178C116.371 53.1178 116.15 52.1794 116.15 50.413V50.1187C116.15 48.3522 116.371 47.4138 116.371 47.4138C116.654 45.5646 118.021 45.5452 118.236 45.5536C118.436 45.5436 119.791 45.5461 120.105 47.4138C120.105 47.4138 120.326 48.3522 120.326 50.1187V50.413ZM110.75 45.4816V43.5695C110.75 43.4367 110.698 43.3093 110.604 43.2154C110.51 43.1215 110.382 43.0687 110.25 43.0687H101.703C101.57 43.0687 101.443 43.1214 101.349 43.2154C101.255 43.3093 101.202 43.4366 101.202 43.5695V45.4668C101.202 45.5996 101.255 45.7269 101.349 45.8208C101.443 45.9147 101.57 45.9675 101.703 45.9676H106.161L100.884 53.625C100.884 53.625 100.676 53.9354 100.683 54.2783V56.6076C100.683 56.6076 100.648 57.4062 101.554 56.9428C101.554 56.9428 103.162 55.9708 105.859 55.9708C105.859 55.9708 108.522 55.9377 110.298 57.0264C110.298 57.0264 111.035 57.3616 111.035 56.6246V54.5972C111.035 54.5972 111.102 54.0606 110.398 53.7257C110.398 53.7257 108.355 52.6031 105.675 52.7873L110.75 45.4816ZM64.6728 55.0679L63.8634 53.8354C63.6058 53.3753 63.6243 52.8599 63.6243 52.8599V47.1745C63.7347 42.2616 58.2897 42.6849 58.2897 42.6849C53.4493 42.6849 52.7343 46.4529 52.7343 46.4529C52.5326 47.2105 53.1193 47.2288 53.1193 47.2288L55.4845 47.4688C55.4845 47.4688 55.8878 47.5611 56.0346 47.0809C56.0346 47.0809 56.3461 45.437 58.0879 45.437C59.9832 45.437 59.9636 47.0641 59.9636 47.0641V48.4262C56.1801 48.5527 54.4267 49.6033 54.4267 49.6033C52.0907 50.9281 52.2377 53.5594 52.2377 53.5594C52.2377 57.8465 56.3214 57.6624 56.3214 57.6624C58.9334 57.6624 60.4785 55.7489 60.4785 55.7489C60.9383 56.5588 61.7847 57.3311 61.7847 57.3311C62.208 57.7904 62.6493 57.4049 62.6493 57.4049L64.5624 55.7674C64.9854 55.4543 64.6728 55.0679 64.6728 55.0679ZM57.5961 55.0149C56.3675 55.0149 55.9108 53.7937 56.1147 52.5934C56.3189 51.3931 57.3794 50.4499 59.9638 50.4775V51.2072C60.0554 54.3951 58.6188 55.0149 57.5961 55.0149ZM99.0344 55.0679L98.2252 53.8354C97.9676 53.3753 97.9859 52.8599 97.9859 52.8599V47.1745C98.0963 42.2616 92.6513 42.6849 92.6513 42.6849C87.8109 42.6849 87.0959 46.4529 87.0959 46.4529C86.8942 47.2105 87.4809 47.2288 87.4809 47.2288L89.8461 47.4688C89.8461 47.4688 90.2494 47.5611 90.3962 47.0809C90.3962 47.0809 90.7077 45.437 92.4495 45.437C94.3448 45.437 94.3252 47.0641 94.3252 47.0641V48.4262C90.5419 48.5527 88.7884 49.6033 88.7884 49.6033C86.4523 50.9281 86.5993 53.5594 86.5993 53.5594C86.5993 57.8465 90.683 57.6624 90.683 57.6624C93.295 57.6624 94.8401 55.7489 94.8401 55.7489C95.3002 56.5588 96.146 57.3311 96.146 57.3311C96.5694 57.7904 97.0109 57.4049 97.0109 57.4049L98.9238 55.7674C99.347 55.4543 99.0344 55.0679 99.0344 55.0679ZM91.9577 55.0149C90.7291 55.0149 90.2724 53.7937 90.4763 52.5934C90.6805 51.3931 91.741 50.4499 94.3252 50.4775V51.2072C94.417 54.3951 92.9806 55.0149 91.9577 55.0149Z" fill="black"/>
<path d="M105.546 65.8286C105.546 65.8286 105.329 66.205 105.595 66.2892C105.595 66.2892 105.895 66.4064 106.27 66.0589C106.27 66.0589 109 63.6731 109.066 59.3295C109.066 59.3295 109.086 58.787 108.868 58.6386C108.868 58.6386 108.013 57.8817 104.937 58.112C104.937 58.112 102.256 58.293 100.792 59.5929C100.792 59.5929 100.661 59.7079 100.661 59.8559C100.661 59.8559 100.629 60.1754 101.434 60.0369C101.434 60.0369 104.114 59.6582 105.71 59.8559C105.71 59.8559 106.533 59.9546 106.763 60.2345C106.763 60.2345 107.141 60.5472 106.944 61.5834C106.944 61.5839 106.401 64.2163 105.546 65.8286Z" fill="#F3971B"/>
<path d="M105.005 61.6617C105.005 61.6617 105.405 62.1806 104.759 62.6282C104.759 62.6282 97.8573 68.1504 86.2685 68.1504C86.2685 68.1504 74.3393 68.7391 64.3784 59.6862C64.3784 59.6862 64.0292 59.3795 64.246 59.0944C64.246 59.0944 64.4398 58.8321 64.9415 59.1174C64.9415 59.1174 74.3117 64.9578 86.6179 64.9578C86.6179 64.9578 95.1715 65.289 103.946 61.5354C103.946 61.5354 104.645 61.1731 105.005 61.6617Z" fill="#F3971B"/>
</svg>
