<svg width="189" height="100" viewBox="0 0 189 100" fill="none" xmlns="http://www.w3.org/2000/svg">
<rect width="189" height="100" rx="10" fill="white"/>
<path fill-rule="evenodd" clip-rule="evenodd" d="M78.6528 56.41L79.7511 53.858C80.9373 54.7451 82.5178 55.2062 84.0772 55.2062C85.2282 55.2062 85.9568 54.7627 85.9568 54.0903C85.9392 52.2107 79.0612 53.682 79.0084 48.9688C78.9908 46.5752 81.1168 44.7307 84.13 44.7307C85.9216 44.7307 87.7098 45.1742 88.9876 46.1844L87.9597 48.7892C86.7911 48.043 85.3373 47.5115 83.954 47.5115C83.0141 47.5115 82.3946 47.955 82.3946 48.5217C82.4122 50.3662 89.3431 49.3559 89.4135 53.858C89.4135 56.3044 87.3402 58.0257 84.3623 58.0257C82.1799 58.0222 80.177 57.5083 78.6528 56.41ZM120.826 52.9358C120.277 53.8932 119.249 54.5479 118.059 54.5479C116.303 54.5479 114.888 53.1294 114.888 51.3764C114.888 49.6235 116.306 48.2049 118.059 48.2049C119.245 48.2049 120.277 48.8596 120.826 49.8171L123.857 48.1345C122.723 46.114 120.541 44.7307 118.059 44.7307C114.388 44.7307 111.41 47.7086 111.41 51.3799C111.41 55.0513 114.388 58.0292 118.059 58.0292C120.558 58.0292 122.723 56.6635 123.857 54.6254L120.826 52.9358ZM90.9376 39.2148H94.7322V57.7758H90.9376V39.2148ZM125.346 39.2148V57.7758H129.14V52.2071L133.642 57.7758H138.5L132.773 51.1617L138.074 44.9912H133.428L129.137 50.1127V39.2148H125.346Z" fill="black"/>
<path d="M106.007 52.9704C105.458 53.875 104.324 54.5473 103.046 54.5473C101.29 54.5473 99.8749 53.1288 99.8749 51.3758C99.8749 49.6229 101.293 48.2043 103.046 48.2043C104.324 48.2043 105.458 48.9118 106.007 49.8341V52.9704ZM106.007 44.9941V46.5006C105.387 45.4552 103.845 44.7266 102.23 44.7266C98.8963 44.7266 96.2739 47.6693 96.2739 51.3582C96.2739 55.0472 98.8963 58.0251 102.23 58.0251C103.842 58.0251 105.384 57.3 106.007 56.251V57.7576H109.801V44.9941H106.007Z" fill="black"/>
<path fill-rule="evenodd" clip-rule="evenodd" d="M55.1992 52.9541C55.1992 54.2494 54.1537 55.2949 52.8584 55.2949C51.563 55.2949 50.5176 54.2459 50.5176 52.9541C50.5176 51.6622 51.563 50.6133 52.8584 50.6133H55.1992V52.9541ZM56.3678 52.9541C56.3678 51.6587 57.4133 50.6133 58.7086 50.6133C60.004 50.6133 61.0494 51.6587 61.0494 52.9541V58.8043C61.0494 60.0997 60.004 61.1451 58.7086 61.1451C57.4133 61.1451 56.3678 60.0997 56.3678 58.8043V52.9541Z" fill="#E01E5A"/>
<path fill-rule="evenodd" clip-rule="evenodd" d="M58.7086 43.5586C57.4133 43.5586 56.3678 42.5131 56.3678 41.2178C56.3678 39.9224 57.4133 38.877 58.7086 38.877C60.004 38.877 61.0494 39.9224 61.0494 41.2178V43.5586H58.7086ZM58.7086 44.7448C60.004 44.7448 61.0494 45.7903 61.0494 47.0856C61.0494 48.381 60.004 49.4264 58.7086 49.4264H52.8408C51.5454 49.4264 50.5 48.3775 50.5 47.0856C50.5 45.7938 51.5454 44.7448 52.8408 44.7448H58.7086Z" fill="#36C5F0"/>
<path fill-rule="evenodd" clip-rule="evenodd" d="M68.0861 47.0856C68.0861 45.7903 69.1315 44.7448 70.4269 44.7448C71.7222 44.7448 72.7677 45.7903 72.7677 47.0856C72.7677 48.381 71.7222 49.4264 70.4269 49.4264H68.0861V47.0856ZM66.9174 47.0856C66.9174 48.381 65.872 49.4264 64.5766 49.4264C63.2813 49.4264 62.2358 48.381 62.2358 47.0856V41.2178C62.2358 39.9224 63.2813 38.877 64.5766 38.877C65.872 38.877 66.9174 39.9224 66.9174 41.2178V47.0856Z" fill="#2EB67D"/>
<path fill-rule="evenodd" clip-rule="evenodd" d="M64.5766 56.4635C65.872 56.4635 66.9174 57.509 66.9174 58.8043C66.9174 60.0997 65.872 61.1451 64.5766 61.1451C63.2813 61.1451 62.2358 60.0997 62.2358 58.8043V56.4635H64.5766ZM64.5766 55.2949C63.2813 55.2949 62.2358 54.2494 62.2358 52.9541C62.2358 51.6587 63.2813 50.6133 64.5766 50.6133H70.4445C71.7398 50.6133 72.7853 51.6587 72.7853 52.9541C72.7853 54.2494 71.7398 55.2949 70.4445 55.2949H64.5766Z" fill="#ECB22E"/>
</svg>
