<svg width="189" height="100" viewBox="0 0 189 100" fill="none" xmlns="http://www.w3.org/2000/svg">
<rect width="189" height="100" rx="10" fill="white"/>
<path d="M87.383 44.7964C85.794 44.7964 83.9869 45.5329 82.8828 47.0076L82.8835 47.0048L82.8828 47.0055L82.8835 45.0279H79.0936V58.8293H82.8828V50.9761C82.8828 49.5628 83.9786 48.0602 86.0077 48.0602C87.5757 48.0602 89.1985 49.1511 89.1985 50.9761V58.8293H92.9884V50.2739C92.9884 47.0995 90.7172 44.7964 87.383 44.7964ZM119.924 45.0286L116.498 54.4297L113.072 45.0286H108.742L114.421 58.8256H118.574L124.253 45.0286H119.924ZM67.7795 49.1863C68.4248 48.3196 69.4529 47.8108 70.6945 47.8108C72.0602 47.8108 73.0963 48.5907 73.6319 49.742L67.0108 52.489C66.83 51.0792 67.1907 49.9767 67.7795 49.1863ZM75.0604 54.5861C73.4653 55.7665 72.554 56.0481 71.0995 56.0481C69.7905 56.0481 68.7656 55.6417 68.0431 54.929L77.732 50.9096C77.5204 49.4119 76.9519 48.0737 76.0772 47.0563C74.8042 45.5779 72.9199 44.7957 70.6257 44.7957C66.4586 44.7957 63.3164 47.8698 63.3164 51.9303C63.3164 56.096 66.466 59.064 71.0435 59.064C73.6081 59.064 76.2303 57.8485 77.457 56.4284L75.0604 54.5861ZM62.9551 55.3495H54.3416V40.9004H50.5V58.8293H62.9551V55.3495ZM131.058 48.0433C128.941 48.0433 127.404 49.6472 127.404 51.9289C127.404 54.1073 129.032 55.8144 131.109 55.8144C133.226 55.8144 134.762 54.1664 134.762 51.9289C134.762 49.7504 133.134 48.0433 131.058 48.0433ZM131.058 59.062C126.913 59.062 123.665 55.9742 123.665 51.9289C123.665 47.9288 126.935 44.7957 131.109 44.7957C135.253 44.7957 138.5 47.8833 138.5 51.9289C138.5 55.928 135.231 59.0618 131.058 59.0618V59.062ZM101.879 48.0433C99.7628 48.0433 98.2268 49.6472 98.2268 51.9289C98.2268 54.1073 99.854 55.8144 101.931 55.8144C104.047 55.8144 105.583 54.1664 105.583 51.9289C105.583 49.7504 103.956 48.0433 101.879 48.0433ZM101.879 59.062C97.7345 59.062 94.4877 55.9742 94.4877 51.9289C94.4877 47.9288 97.7569 44.7957 101.931 44.7957C106.075 44.7957 109.322 47.8833 109.322 51.9289C109.322 55.928 106.052 59.0618 101.879 59.0618" fill="#E60012"/>
</svg>
