<svg width="189" height="100" viewBox="0 0 189 100" fill="none" xmlns="http://www.w3.org/2000/svg">
<rect width="189" height="100" rx="10" fill="white"/>
<path d="M62.6003 60.359C61.2765 60.5914 59.9294 60.6611 58.5359 60.8468L54.2856 48.3982V61.381C52.9619 61.5203 51.7542 61.7061 50.5 61.8919V38.1094H54.0303L58.861 51.6034V38.1094H62.6003V60.359ZM69.9162 46.8188C71.3563 46.8188 73.5626 46.7491 74.8864 46.7491V50.4651C73.2373 50.4651 71.3098 50.4651 69.9162 50.5348V56.0624C72.0994 55.9231 74.2826 55.7372 76.4889 55.6675V59.2439L66.2001 60.057V38.1094H76.4889V41.8254H69.9162V46.8188ZM90.3078 41.8255H86.4525V58.9192C85.1983 58.9192 83.9441 58.9192 82.7366 58.9655V41.8255H78.8813V38.1094H90.308L90.3078 41.8255ZM96.3463 46.5634H101.433V50.2794H96.3463V58.7102H92.6997V38.1094H103.082V41.8254H96.3463V46.5634ZM109.12 55.4586C111.234 55.5049 113.37 55.6677 115.437 55.7837V59.4533C112.116 59.2441 108.795 59.0354 105.404 58.9655V38.1094H109.12V55.4586ZM118.573 59.7088C119.757 59.7786 121.011 59.8483 122.219 59.9874V38.1094H118.573V59.7088ZM138.5 38.1094L133.785 49.4201L138.5 61.8919C137.106 61.7061 135.713 61.4506 134.319 61.2184L131.649 54.3439L128.931 60.6611C127.584 60.4287 126.284 60.359 124.937 60.1732L129.721 49.2806L125.401 38.1094H129.396L131.834 44.357L134.436 38.1094H138.5Z" fill="#D81F26"/>
</svg>
